  0
SECTION
  2
HEADER
  9
$ACADVER
  1
AC1009
  9
$EXTMIN
 10
0.0
 20
0.0
 30
0.0
  9
$EXTMAX
 10
1000.0
 20
1000.0
 30
0.0
  9
$FILLMODE
 70
 0
  9
$SPLFRAME
 70
 1
  0
ENDSEC
  0
SECTION
  2
TABLES
  0
TABLE
  2
LAYER
 70
1
  0
LAYER
  2
0
 70
     0
 62
     7
  6
CONTINUOUS
  0
ENDTAB
  0
ENDSEC
  0
SECTION
  2
ENTITIES
  0
LINE
  8
0
 62
     0
 10
304.396
 20
79.6325
 30
0.0
 11
304.671
 21
79.6216
 31
0.0
  0
LINE
  8
0
 62
     0
 10
304.671
 20
79.6216
 30
0.0
 11
304.943
 21
79.5898
 31
0.0
  0
LINE
  8
0
 62
     0
 10
304.943
 20
79.5898
 30
0.0
 11
305.213
 21
79.5362
 31
0.0
  0
LINE
  8
0
 62
     0
 10
305.213
 20
79.5362
 30
0.0
 11
305.478
 21
79.4618
 31
0.0
  0
LINE
  8
0
 62
     0
 10
305.478
 20
79.4618
 30
0.0
 11
305.736
 21
79.3669
 31
0.0
  0
LINE
  8
0
 62
     0
 10
305.736
 20
79.3669
 30
0.0
 11
305.985
 21
79.2508
 31
0.0
  0
LINE
  8
0
 62
     0
 10
305.985
 20
79.2508
 30
0.0
 11
306.225
 21
79.1175
 31
0.0
  0
LINE
  8
0
 62
     0
 10
306.225
 20
79.1175
 30
0.0
 11
306.454
 21
78.9644
 31
0.0
  0
LINE
  8
0
 62
     0
 10
306.454
 20
78.9644
 30
0.0
 11
306.67
 21
78.7947
 31
0.0
  0
LINE
  8
0
 62
     0
 10
306.67
 20
78.7947
 30
0.0
 11
306.87
 21
78.6074
 31
0.0
  0
LINE
  8
0
 62
     0
 10
306.87
 20
78.6074
 30
0.0
 11
307.057
 21
78.4063
 31
0.0
  0
LINE
  8
0
 62
     0
 10
307.057
 20
78.4063
 30
0.0
 11
307.228
 21
78.19
 31
0.0
  0
LINE
  8
0
 62
     0
 10
307.228
 20
78.19
 30
0.0
 11
307.381
 21
77.9611
 31
0.0
  0
LINE
  8
0
 62
     0
 10
307.381
 20
77.9611
 30
0.0
 11
307.515
 21
77.7215
 31
0.0
  0
LINE
  8
0
 62
     0
 10
307.515
 20
77.7215
 30
0.0
 11
307.629
 21
77.4718
 31
0.0
  0
LINE
  8
0
 62
     0
 10
307.629
 20
77.4718
 30
0.0
 11
307.724
 21
77.2142
 31
0.0
  0
LINE
  8
0
 62
     0
 10
307.724
 20
77.2142
 30
0.0
 11
307.8
 21
76.9497
 31
0.0
  0
LINE
  8
0
 62
     0
 10
307.8
 20
76.9497
 30
0.0
 11
307.852
 21
76.6808
 31
0.0
  0
LINE
  8
0
 62
     0
 10
307.852
 20
76.6808
 30
0.0
 11
307.885
 21
76.4067
 31
0.0
  0
LINE
  8
0
 62
     0
 10
307.885
 20
76.4067
 30
0.0
 11
307.896
 21
76.1326
 31
0.0
  0
LINE
  8
0
 62
     0
 10
307.896
 20
76.1326
 30
0.0
 11
307.896
 21
3.93153
 31
0.0
  0
LINE
  8
0
 62
     0
 10
307.896
 20
3.93153
 30
0.0
 11
307.885
 21
3.65732
 31
0.0
  0
LINE
  8
0
 62
     0
 10
307.885
 20
3.65732
 30
0.0
 11
307.852
 21
3.38446
 31
0.0
  0
LINE
  8
0
 62
     0
 10
307.852
 20
3.38446
 30
0.0
 11
307.8
 21
3.11437
 31
0.0
  0
LINE
  8
0
 62
     0
 10
307.8
 20
3.11437
 30
0.0
 11
307.724
 21
2.84978
 31
0.0
  0
LINE
  8
0
 62
     0
 10
307.724
 20
2.84978
 30
0.0
 11
307.629
 21
2.59209
 31
0.0
  0
LINE
  8
0
 62
     0
 10
307.629
 20
2.59209
 30
0.0
 11
307.515
 21
2.34267
 31
0.0
  0
LINE
  8
0
 62
     0
 10
307.515
 20
2.34267
 30
0.0
 11
307.381
 21
2.10289
 31
0.0
  0
LINE
  8
0
 62
     0
 10
307.381
 20
2.10289
 30
0.0
 11
307.228
 21
1.87413
 31
0.0
  0
LINE
  8
0
 62
     0
 10
307.228
 20
1.87413
 30
0.0
 11
307.057
 21
1.65778
 31
0.0
  0
LINE
  8
0
 62
     0
 10
307.057
 20
1.65778
 30
0.0
 11
306.87
 21
1.45796
 31
0.0
  0
LINE
  8
0
 62
     0
 10
306.87
 20
1.45796
 30
0.0
 11
306.67
 21
1.27055
 31
0.0
  0
LINE
  8
0
 62
     0
 10
306.67
 20
1.27055
 30
0.0
 11
306.454
 21
1.09968
 31
0.0
  0
LINE
  8
0
 62
     0
 10
306.454
 20
1.09968
 30
0.0
 11
306.225
 21
0.946711
 31
0.0
  0
LINE
  8
0
 62
     0
 10
306.225
 20
0.946711
 30
0.0
 11
305.985
 21
0.813043
 31
0.0
  0
LINE
  8
0
 62
     0
 10
305.985
 20
0.813043
 30
0.0
 11
305.736
 21
0.698666
 31
0.0
  0
LINE
  8
0
 62
     0
 10
305.736
 20
0.698666
 30
0.0
 11
305.478
 21
0.603582
 31
0.0
  0
LINE
  8
0
 62
     0
 10
305.478
 20
0.603582
 30
0.0
 11
305.213
 21
0.527787
 31
0.0
  0
LINE
  8
0
 62
     0
 10
305.213
 20
0.527787
 30
0.0
 11
304.943
 21
0.475424
 31
0.0
  0
LINE
  8
0
 62
     0
 10
304.943
 20
0.475424
 30
0.0
 11
304.671
 21
0.442352
 31
0.0
  0
LINE
  8
0
 62
     0
 10
304.671
 20
0.442352
 30
0.0
 11
304.396
 21
0.431327
 31
0.0
  0
LINE
  8
0
 62
     0
 10
304.396
 20
0.431327
 30
0.0
 11
3.5953
 21
0.431327
 31
0.0
  0
LINE
  8
0
 62
     0
 10
3.5953
 20
0.431327
 30
0.0
 11
3.32107
 21
0.442352
 31
0.0
  0
LINE
  8
0
 62
     0
 10
3.32107
 20
0.442352
 30
0.0
 11
3.04684
 21
0.475424
 31
0.0
  0
LINE
  8
0
 62
     0
 10
3.04684
 20
0.475424
 30
0.0
 11
2.77813
 21
0.527787
 31
0.0
  0
LINE
  8
0
 62
     0
 10
2.77813
 20
0.527787
 30
0.0
 11
2.51354
 21
0.603582
 31
0.0
  0
LINE
  8
0
 62
     0
 10
2.51354
 20
0.603582
 30
0.0
 11
2.25585
 21
0.698666
 31
0.0
  0
LINE
  8
0
 62
     0
 10
2.25585
 20
0.698666
 30
0.0
 11
2.00642
 21
0.813043
 31
0.0
  0
LINE
  8
0
 62
     0
 10
2.00642
 20
0.813043
 30
0.0
 11
1.76664
 21
0.946711
 31
0.0
  0
LINE
  8
0
 62
     0
 10
1.76664
 20
0.946711
 30
0.0
 11
1.53789
 21
1.09968
 31
0.0
  0
LINE
  8
0
 62
     0
 10
1.53789
 20
1.09968
 30
0.0
 11
1.32154
 21
1.27055
 31
0.0
  0
LINE
  8
0
 62
     0
 10
1.32154
 20
1.27055
 30
0.0
 11
1.12034
 21
1.45796
 31
0.0
  0
LINE
  8
0
 62
     0
 10
1.12034
 20
1.45796
 30
0.0
 11
0.932931
 21
1.65778
 31
0.0
  0
LINE
  8
0
 62
     0
 10
0.932931
 20
1.65778
 30
0.0
 11
0.763432
 21
1.87413
 31
0.0
  0
LINE
  8
0
 62
     0
 10
0.763432
 20
1.87413
 30
0.0
 11
0.610471
 21
2.10289
 31
0.0
  0
LINE
  8
0
 62
     0
 10
0.610471
 20
2.10289
 30
0.0
 11
0.4768
 21
2.34267
 31
0.0
  0
LINE
  8
0
 62
     0
 10
0.4768
 20
2.34267
 30
0.0
 11
0.361047
 21
2.59209
 31
0.0
  0
LINE
  8
0
 62
     0
 10
0.361047
 20
2.59209
 30
0.0
 11
0.265961
 21
2.84978
 31
0.0
  0
LINE
  8
0
 62
     0
 10
0.265961
 20
2.84978
 30
0.0
 11
0.191547
 21
3.11437
 31
0.0
  0
LINE
  8
0
 62
     0
 10
0.191547
 20
3.11437
 30
0.0
 11
0.137804
 21
3.38446
 31
0.0
  0
LINE
  8
0
 62
     0
 10
0.137804
 20
3.38446
 30
0.0
 11
0.106109
 21
3.65732
 31
0.0
  0
LINE
  8
0
 62
     0
 10
0.106109
 20
3.65732
 30
0.0
 11
0.0950846
 21
3.93153
 31
0.0
  0
LINE
  8
0
 62
     0
 10
0.0950846
 20
3.93153
 30
0.0
 11
0.0950846
 21
76.1326
 31
0.0
  0
LINE
  8
0
 62
     0
 10
0.0950846
 20
76.1326
 30
0.0
 11
0.106109
 21
76.4067
 31
0.0
  0
LINE
  8
0
 62
     0
 10
0.106109
 20
76.4067
 30
0.0
 11
0.137804
 21
76.6808
 31
0.0
  0
LINE
  8
0
 62
     0
 10
0.137804
 20
76.6808
 30
0.0
 11
0.191547
 21
76.9497
 31
0.0
  0
LINE
  8
0
 62
     0
 10
0.191547
 20
76.9497
 30
0.0
 11
0.265961
 21
77.2142
 31
0.0
  0
LINE
  8
0
 62
     0
 10
0.265961
 20
77.2142
 30
0.0
 11
0.361047
 21
77.4718
 31
0.0
  0
LINE
  8
0
 62
     0
 10
0.361047
 20
77.4718
 30
0.0
 11
0.4768
 21
77.7215
 31
0.0
  0
LINE
  8
0
 62
     0
 10
0.4768
 20
77.7215
 30
0.0
 11
0.610471
 21
77.9611
 31
0.0
  0
LINE
  8
0
 62
     0
 10
0.610471
 20
77.9611
 30
0.0
 11
0.763432
 21
78.19
 31
0.0
  0
LINE
  8
0
 62
     0
 10
0.763432
 20
78.19
 30
0.0
 11
0.932931
 21
78.4063
 31
0.0
  0
LINE
  8
0
 62
     0
 10
0.932931
 20
78.4063
 30
0.0
 11
1.12034
 21
78.6074
 31
0.0
  0
LINE
  8
0
 62
     0
 10
1.12034
 20
78.6074
 30
0.0
 11
1.32154
 21
78.7947
 31
0.0
  0
LINE
  8
0
 62
     0
 10
1.32154
 20
78.7947
 30
0.0
 11
1.53789
 21
78.9644
 31
0.0
  0
LINE
  8
0
 62
     0
 10
1.53789
 20
78.9644
 30
0.0
 11
1.76664
 21
79.1175
 31
0.0
  0
LINE
  8
0
 62
     0
 10
1.76664
 20
79.1175
 30
0.0
 11
2.00642
 21
79.2508
 31
0.0
  0
LINE
  8
0
 62
     0
 10
2.00642
 20
79.2508
 30
0.0
 11
2.25585
 21
79.3669
 31
0.0
  0
LINE
  8
0
 62
     0
 10
2.25585
 20
79.3669
 30
0.0
 11
2.51354
 21
79.4618
 31
0.0
  0
LINE
  8
0
 62
     0
 10
2.51354
 20
79.4618
 30
0.0
 11
2.77813
 21
79.5362
 31
0.0
  0
LINE
  8
0
 62
     0
 10
2.77813
 20
79.5362
 30
0.0
 11
3.04684
 21
79.5898
 31
0.0
  0
LINE
  8
0
 62
     0
 10
3.04684
 20
79.5898
 30
0.0
 11
3.32107
 21
79.6216
 31
0.0
  0
LINE
  8
0
 62
     0
 10
3.32107
 20
79.6216
 30
0.0
 11
3.5953
 21
79.6325
 31
0.0
  0
LINE
  8
0
 62
     0
 10
3.5953
 20
79.6325
 30
0.0
 11
304.396
 21
79.6325
 31
0.0
  0
LINE
  8
0
 62
     0
 10
258.914
 20
18.4574
 30
0.0
 11
258.914
 21
17.457
 31
0.0
  0
LINE
  8
0
 62
     0
 10
258.914
 20
17.457
 30
0.0
 11
258.113
 21
17.457
 31
0.0
  0
LINE
  8
0
 62
     0
 10
258.113
 20
17.457
 30
0.0
 11
258.113
 21
14.3578
 31
0.0
  0
LINE
  8
0
 62
     0
 10
258.113
 20
14.3578
 30
0.0
 11
258.914
 21
14.3578
 31
0.0
  0
LINE
  8
0
 62
     0
 10
258.914
 20
14.3578
 30
0.0
 11
258.914
 21
8.55761
 31
0.0
  0
LINE
  8
0
 62
     0
 10
258.914
 20
8.55761
 30
0.0
 11
258.113
 21
8.55761
 31
0.0
  0
LINE
  8
0
 62
     0
 10
258.113
 20
8.55761
 30
0.0
 11
258.113
 21
5.45705
 31
0.0
  0
LINE
  8
0
 62
     0
 10
258.113
 20
5.45705
 30
0.0
 11
258.914
 21
5.45705
 31
0.0
  0
LINE
  8
0
 62
     0
 10
258.914
 20
5.45705
 30
0.0
 11
258.914
 21
4.45795
 31
0.0
  0
LINE
  8
0
 62
     0
 10
258.914
 20
4.45795
 30
0.0
 11
272.913
 21
4.45795
 31
0.0
  0
LINE
  8
0
 62
     0
 10
272.913
 20
4.45795
 30
0.0
 11
272.913
 21
5.45705
 31
0.0
  0
LINE
  8
0
 62
     0
 10
272.913
 20
5.45705
 30
0.0
 11
273.713
 21
5.45705
 31
0.0
  0
LINE
  8
0
 62
     0
 10
273.713
 20
5.45705
 30
0.0
 11
273.713
 21
8.55761
 31
0.0
  0
LINE
  8
0
 62
     0
 10
273.713
 20
8.55761
 30
0.0
 11
272.913
 21
8.55761
 31
0.0
  0
LINE
  8
0
 62
     0
 10
272.913
 20
8.55761
 30
0.0
 11
272.913
 21
14.3578
 31
0.0
  0
LINE
  8
0
 62
     0
 10
272.913
 20
14.3578
 30
0.0
 11
273.713
 21
14.3578
 31
0.0
  0
LINE
  8
0
 62
     0
 10
273.713
 20
14.3578
 30
0.0
 11
273.713
 21
17.457
 31
0.0
  0
LINE
  8
0
 62
     0
 10
273.713
 20
17.457
 30
0.0
 11
272.913
 21
17.457
 31
0.0
  0
LINE
  8
0
 62
     0
 10
272.913
 20
17.457
 30
0.0
 11
272.913
 21
18.4574
 31
0.0
  0
LINE
  8
0
 62
     0
 10
272.913
 20
18.4574
 30
0.0
 11
258.914
 21
18.4574
 31
0.0
  0
LINE
  8
0
 62
     0
 10
243.024
 20
19.429
 30
0.0
 11
243.024
 21
18.2287
 31
0.0
  0
LINE
  8
0
 62
     0
 10
243.024
 20
18.2287
 30
0.0
 11
241.299
 21
18.2287
 31
0.0
  0
LINE
  8
0
 62
     0
 10
241.299
 20
18.2287
 30
0.0
 11
241.299
 21
13.7583
 31
0.0
  0
LINE
  8
0
 62
     0
 10
241.299
 20
13.7583
 30
0.0
 11
194.524
 21
13.7583
 31
0.0
  0
LINE
  8
0
 62
     0
 10
194.524
 20
13.7583
 30
0.0
 11
194.524
 21
14.3578
 31
0.0
  0
LINE
  8
0
 62
     0
 10
194.524
 20
14.3578
 30
0.0
 11
195.323
 21
14.3578
 31
0.0
  0
LINE
  8
0
 62
     0
 10
195.323
 20
14.3578
 30
0.0
 11
195.323
 21
17.457
 31
0.0
  0
LINE
  8
0
 62
     0
 10
195.323
 20
17.457
 30
0.0
 11
194.524
 21
17.457
 31
0.0
  0
LINE
  8
0
 62
     0
 10
194.524
 20
17.457
 30
0.0
 11
194.524
 21
18.4574
 31
0.0
  0
LINE
  8
0
 62
     0
 10
194.524
 20
18.4574
 30
0.0
 11
180.523
 21
18.4574
 31
0.0
  0
LINE
  8
0
 62
     0
 10
180.523
 20
18.4574
 30
0.0
 11
180.523
 21
17.457
 31
0.0
  0
LINE
  8
0
 62
     0
 10
180.523
 20
17.457
 30
0.0
 11
179.724
 21
17.457
 31
0.0
  0
LINE
  8
0
 62
     0
 10
179.724
 20
17.457
 30
0.0
 11
179.724
 21
14.3578
 31
0.0
  0
LINE
  8
0
 62
     0
 10
179.724
 20
14.3578
 30
0.0
 11
180.523
 21
14.3578
 31
0.0
  0
LINE
  8
0
 62
     0
 10
180.523
 20
14.3578
 30
0.0
 11
180.523
 21
13.757
 31
0.0
  0
LINE
  8
0
 62
     0
 10
180.523
 20
13.757
 30
0.0
 11
133.748
 21
13.757
 31
0.0
  0
LINE
  8
0
 62
     0
 10
133.748
 20
13.757
 30
0.0
 11
133.748
 21
18.2273
 31
0.0
  0
LINE
  8
0
 62
     0
 10
133.748
 20
18.2273
 30
0.0
 11
132.023
 21
18.2273
 31
0.0
  0
LINE
  8
0
 62
     0
 10
132.023
 20
18.2273
 30
0.0
 11
132.023
 21
19.4276
 31
0.0
  0
LINE
  8
0
 62
     0
 10
132.023
 20
19.4276
 30
0.0
 11
128.724
 21
19.4276
 31
0.0
  0
LINE
  8
0
 62
     0
 10
128.724
 20
19.4276
 30
0.0
 11
128.724
 21
18.2273
 31
0.0
  0
LINE
  8
0
 62
     0
 10
128.724
 20
18.2273
 30
0.0
 11
126.999
 21
18.2273
 31
0.0
  0
LINE
  8
0
 62
     0
 10
126.999
 20
18.2273
 30
0.0
 11
126.999
 21
11.9572
 31
0.0
  0
LINE
  8
0
 62
     0
 10
126.999
 20
11.9572
 30
0.0
 11
126.173
 21
11.9572
 31
0.0
  0
LINE
  8
0
 62
     0
 10
126.173
 20
11.9572
 30
0.0
 11
126.173
 21
9.15705
 31
0.0
  0
LINE
  8
0
 62
     0
 10
126.173
 20
9.15705
 30
0.0
 11
126.999
 21
9.15705
 31
0.0
  0
LINE
  8
0
 62
     0
 10
126.999
 20
9.15705
 30
0.0
 11
126.999
 21
5.92695
 31
0.0
  0
LINE
  8
0
 62
     0
 10
126.999
 20
5.92695
 30
0.0
 11
133.748
 21
5.92695
 31
0.0
  0
LINE
  8
0
 62
     0
 10
133.748
 20
5.92695
 30
0.0
 11
133.748
 21
9.15705
 31
0.0
  0
LINE
  8
0
 62
     0
 10
133.748
 20
9.15705
 30
0.0
 11
180.523
 21
9.15705
 31
0.0
  0
LINE
  8
0
 62
     0
 10
180.523
 20
9.15705
 30
0.0
 11
180.523
 21
8.55761
 31
0.0
  0
LINE
  8
0
 62
     0
 10
180.523
 20
8.55761
 30
0.0
 11
179.724
 21
8.55761
 31
0.0
  0
LINE
  8
0
 62
     0
 10
179.724
 20
8.55761
 30
0.0
 11
179.724
 21
5.45705
 31
0.0
  0
LINE
  8
0
 62
     0
 10
179.724
 20
5.45705
 30
0.0
 11
180.523
 21
5.45705
 31
0.0
  0
LINE
  8
0
 62
     0
 10
180.523
 20
5.45705
 30
0.0
 11
180.523
 21
4.45795
 31
0.0
  0
LINE
  8
0
 62
     0
 10
180.523
 20
4.45795
 30
0.0
 11
194.524
 21
4.45795
 31
0.0
  0
LINE
  8
0
 62
     0
 10
194.524
 20
4.45795
 30
0.0
 11
194.524
 21
5.45705
 31
0.0
  0
LINE
  8
0
 62
     0
 10
194.524
 20
5.45705
 30
0.0
 11
195.323
 21
5.45705
 31
0.0
  0
LINE
  8
0
 62
     0
 10
195.323
 20
5.45705
 30
0.0
 11
195.323
 21
8.55761
 31
0.0
  0
LINE
  8
0
 62
     0
 10
195.323
 20
8.55761
 30
0.0
 11
194.524
 21
8.55761
 31
0.0
  0
LINE
  8
0
 62
     0
 10
194.524
 20
8.55761
 30
0.0
 11
194.524
 21
9.15705
 31
0.0
  0
LINE
  8
0
 62
     0
 10
194.524
 20
9.15705
 30
0.0
 11
241.299
 21
9.15705
 31
0.0
  0
LINE
  8
0
 62
     0
 10
241.299
 20
9.15705
 30
0.0
 11
241.299
 21
5.92833
 31
0.0
  0
LINE
  8
0
 62
     0
 10
241.299
 20
5.92833
 30
0.0
 11
248.048
 21
5.92833
 31
0.0
  0
LINE
  8
0
 62
     0
 10
248.048
 20
5.92833
 30
0.0
 11
248.048
 21
9.15705
 31
0.0
  0
LINE
  8
0
 62
     0
 10
248.048
 20
9.15705
 30
0.0
 11
248.874
 21
9.15705
 31
0.0
  0
LINE
  8
0
 62
     0
 10
248.874
 20
9.15705
 30
0.0
 11
248.874
 21
11.9586
 31
0.0
  0
LINE
  8
0
 62
     0
 10
248.874
 20
11.9586
 30
0.0
 11
248.048
 21
11.9586
 31
0.0
  0
LINE
  8
0
 62
     0
 10
248.048
 20
11.9586
 30
0.0
 11
248.048
 21
18.2287
 31
0.0
  0
LINE
  8
0
 62
     0
 10
248.048
 20
18.2287
 30
0.0
 11
246.323
 21
18.2287
 31
0.0
  0
LINE
  8
0
 62
     0
 10
246.323
 20
18.2287
 30
0.0
 11
246.323
 21
19.429
 31
0.0
  0
LINE
  8
0
 62
     0
 10
246.323
 20
19.429
 30
0.0
 11
243.024
 21
19.429
 31
0.0
  0
LINE
  8
0
 62
     0
 10
101.752
 20
18.4574
 30
0.0
 11
101.752
 21
17.457
 31
0.0
  0
LINE
  8
0
 62
     0
 10
101.752
 20
17.457
 30
0.0
 11
100.951
 21
17.457
 31
0.0
  0
LINE
  8
0
 62
     0
 10
100.951
 20
17.457
 30
0.0
 11
100.951
 21
14.3578
 31
0.0
  0
LINE
  8
0
 62
     0
 10
100.951
 20
14.3578
 30
0.0
 11
101.752
 21
14.3578
 31
0.0
  0
LINE
  8
0
 62
     0
 10
101.752
 20
14.3578
 30
0.0
 11
101.752
 21
8.55761
 31
0.0
  0
LINE
  8
0
 62
     0
 10
101.752
 20
8.55761
 30
0.0
 11
100.951
 21
8.55761
 31
0.0
  0
LINE
  8
0
 62
     0
 10
100.951
 20
8.55761
 30
0.0
 11
100.951
 21
5.45705
 31
0.0
  0
LINE
  8
0
 62
     0
 10
100.951
 20
5.45705
 30
0.0
 11
101.752
 21
5.45705
 31
0.0
  0
LINE
  8
0
 62
     0
 10
101.752
 20
5.45705
 30
0.0
 11
101.752
 21
4.45795
 31
0.0
  0
LINE
  8
0
 62
     0
 10
101.752
 20
4.45795
 30
0.0
 11
115.751
 21
4.45795
 31
0.0
  0
LINE
  8
0
 62
     0
 10
115.751
 20
4.45795
 30
0.0
 11
115.751
 21
5.45705
 31
0.0
  0
LINE
  8
0
 62
     0
 10
115.751
 20
5.45705
 30
0.0
 11
116.552
 21
5.45705
 31
0.0
  0
LINE
  8
0
 62
     0
 10
116.552
 20
5.45705
 30
0.0
 11
116.552
 21
8.55761
 31
0.0
  0
LINE
  8
0
 62
     0
 10
116.552
 20
8.55761
 30
0.0
 11
115.751
 21
8.55761
 31
0.0
  0
LINE
  8
0
 62
     0
 10
115.751
 20
8.55761
 30
0.0
 11
115.751
 21
14.3578
 31
0.0
  0
LINE
  8
0
 62
     0
 10
115.751
 20
14.3578
 30
0.0
 11
116.552
 21
14.3578
 31
0.0
  0
LINE
  8
0
 62
     0
 10
116.552
 20
14.3578
 30
0.0
 11
116.552
 21
17.457
 31
0.0
  0
LINE
  8
0
 62
     0
 10
116.552
 20
17.457
 30
0.0
 11
115.751
 21
17.457
 31
0.0
  0
LINE
  8
0
 62
     0
 10
115.751
 20
17.457
 30
0.0
 11
115.751
 21
18.4574
 31
0.0
  0
LINE
  8
0
 62
     0
 10
115.751
 20
18.4574
 30
0.0
 11
101.752
 21
18.4574
 31
0.0
  0
LINE
  8
0
 62
     0
 10
16.6205
 20
19.4276
 30
0.0
 11
16.6205
 21
18.2273
 31
0.0
  0
LINE
  8
0
 62
     0
 10
16.6205
 20
18.2273
 30
0.0
 11
14.8952
 21
18.2273
 31
0.0
  0
LINE
  8
0
 62
     0
 10
14.8952
 20
18.2273
 30
0.0
 11
14.8952
 21
11.9572
 31
0.0
  0
LINE
  8
0
 62
     0
 10
14.8952
 20
11.9572
 30
0.0
 11
14.0711
 21
11.9572
 31
0.0
  0
LINE
  8
0
 62
     0
 10
14.0711
 20
11.9572
 30
0.0
 11
14.0711
 21
9.15705
 31
0.0
  0
LINE
  8
0
 62
     0
 10
14.0711
 20
9.15705
 30
0.0
 11
14.8952
 21
9.15705
 31
0.0
  0
LINE
  8
0
 62
     0
 10
14.8952
 20
9.15705
 30
0.0
 11
14.8952
 21
5.92695
 31
0.0
  0
LINE
  8
0
 62
     0
 10
14.8952
 20
5.92695
 30
0.0
 11
21.6449
 21
5.92695
 31
0.0
  0
LINE
  8
0
 62
     0
 10
21.6449
 20
5.92695
 30
0.0
 11
21.6449
 21
9.15705
 31
0.0
  0
LINE
  8
0
 62
     0
 10
21.6449
 20
9.15705
 30
0.0
 11
23.1703
 21
9.15705
 31
0.0
  0
LINE
  8
0
 62
     0
 10
23.1703
 20
9.15705
 30
0.0
 11
23.1703
 21
8.55761
 31
0.0
  0
LINE
  8
0
 62
     0
 10
23.1703
 20
8.55761
 30
0.0
 11
22.3711
 21
8.55761
 31
0.0
  0
LINE
  8
0
 62
     0
 10
22.3711
 20
8.55761
 30
0.0
 11
22.3711
 21
5.45705
 31
0.0
  0
LINE
  8
0
 62
     0
 10
22.3711
 20
5.45705
 30
0.0
 11
23.1703
 21
5.45705
 31
0.0
  0
LINE
  8
0
 62
     0
 10
23.1703
 20
5.45705
 30
0.0
 11
23.1703
 21
4.45795
 31
0.0
  0
LINE
  8
0
 62
     0
 10
23.1703
 20
4.45795
 30
0.0
 11
37.1697
 21
4.45795
 31
0.0
  0
LINE
  8
0
 62
     0
 10
37.1697
 20
4.45795
 30
0.0
 11
37.1697
 21
5.45705
 31
0.0
  0
LINE
  8
0
 62
     0
 10
37.1697
 20
5.45705
 30
0.0
 11
37.9705
 21
5.45705
 31
0.0
  0
LINE
  8
0
 62
     0
 10
37.9705
 20
5.45705
 30
0.0
 11
37.9705
 21
8.55761
 31
0.0
  0
LINE
  8
0
 62
     0
 10
37.9705
 20
8.55761
 30
0.0
 11
37.1697
 21
8.55761
 31
0.0
  0
LINE
  8
0
 62
     0
 10
37.1697
 20
8.55761
 30
0.0
 11
37.1697
 21
9.15705
 31
0.0
  0
LINE
  8
0
 62
     0
 10
37.1697
 20
9.15705
 30
0.0
 11
38.6955
 21
9.15705
 31
0.0
  0
LINE
  8
0
 62
     0
 10
38.6955
 20
9.15705
 30
0.0
 11
38.6955
 21
5.92695
 31
0.0
  0
LINE
  8
0
 62
     0
 10
38.6955
 20
5.92695
 30
0.0
 11
45.4448
 21
5.92695
 31
0.0
  0
LINE
  8
0
 62
     0
 10
45.4448
 20
5.92695
 30
0.0
 11
45.4448
 21
9.15705
 31
0.0
  0
LINE
  8
0
 62
     0
 10
45.4448
 20
9.15705
 30
0.0
 11
46.2703
 21
9.15705
 31
0.0
  0
LINE
  8
0
 62
     0
 10
46.2703
 20
9.15705
 30
0.0
 11
46.2703
 21
11.9572
 31
0.0
  0
LINE
  8
0
 62
     0
 10
46.2703
 20
11.9572
 30
0.0
 11
45.4448
 21
11.9572
 31
0.0
  0
LINE
  8
0
 62
     0
 10
45.4448
 20
11.9572
 30
0.0
 11
45.4448
 21
18.2273
 31
0.0
  0
LINE
  8
0
 62
     0
 10
45.4448
 20
18.2273
 30
0.0
 11
43.7212
 21
18.2273
 31
0.0
  0
LINE
  8
0
 62
     0
 10
43.7212
 20
18.2273
 30
0.0
 11
43.7212
 21
19.4276
 31
0.0
  0
LINE
  8
0
 62
     0
 10
43.7212
 20
19.4276
 30
0.0
 11
40.4206
 21
19.4276
 31
0.0
  0
LINE
  8
0
 62
     0
 10
40.4206
 20
19.4276
 30
0.0
 11
40.4206
 21
18.2273
 31
0.0
  0
LINE
  8
0
 62
     0
 10
40.4206
 20
18.2273
 30
0.0
 11
38.6955
 21
18.2273
 31
0.0
  0
LINE
  8
0
 62
     0
 10
38.6955
 20
18.2273
 30
0.0
 11
38.6955
 21
13.757
 31
0.0
  0
LINE
  8
0
 62
     0
 10
38.6955
 20
13.757
 30
0.0
 11
37.1697
 21
13.757
 31
0.0
  0
LINE
  8
0
 62
     0
 10
37.1697
 20
13.757
 30
0.0
 11
37.1697
 21
14.3578
 31
0.0
  0
LINE
  8
0
 62
     0
 10
37.1697
 20
14.3578
 30
0.0
 11
37.9705
 21
14.3578
 31
0.0
  0
LINE
  8
0
 62
     0
 10
37.9705
 20
14.3578
 30
0.0
 11
37.9705
 21
17.457
 31
0.0
  0
LINE
  8
0
 62
     0
 10
37.9705
 20
17.457
 30
0.0
 11
37.1697
 21
17.457
 31
0.0
  0
LINE
  8
0
 62
     0
 10
37.1697
 20
17.457
 30
0.0
 11
37.1697
 21
18.4574
 31
0.0
  0
LINE
  8
0
 62
     0
 10
37.1697
 20
18.4574
 30
0.0
 11
23.1703
 21
18.4574
 31
0.0
  0
LINE
  8
0
 62
     0
 10
23.1703
 20
18.4574
 30
0.0
 11
23.1703
 21
17.457
 31
0.0
  0
LINE
  8
0
 62
     0
 10
23.1703
 20
17.457
 30
0.0
 11
22.3711
 21
17.457
 31
0.0
  0
LINE
  8
0
 62
     0
 10
22.3711
 20
17.457
 30
0.0
 11
22.3711
 21
14.3578
 31
0.0
  0
LINE
  8
0
 62
     0
 10
22.3711
 20
14.3578
 30
0.0
 11
23.1703
 21
14.3578
 31
0.0
  0
LINE
  8
0
 62
     0
 10
23.1703
 20
14.3578
 30
0.0
 11
23.1703
 21
13.757
 31
0.0
  0
LINE
  8
0
 62
     0
 10
23.1703
 20
13.757
 30
0.0
 11
21.6449
 21
13.757
 31
0.0
  0
LINE
  8
0
 62
     0
 10
21.6449
 20
13.757
 30
0.0
 11
21.6449
 21
18.2273
 31
0.0
  0
LINE
  8
0
 62
     0
 10
21.6449
 20
18.2273
 30
0.0
 11
19.9209
 21
18.2273
 31
0.0
  0
LINE
  8
0
 62
     0
 10
19.9209
 20
18.2273
 30
0.0
 11
19.9209
 21
19.4276
 31
0.0
  0
LINE
  8
0
 62
     0
 10
19.9209
 20
19.4276
 30
0.0
 11
16.6205
 21
19.4276
 31
0.0
  0
LINE
  8
0
 62
     0
 10
282.727
 20
37.5073
 30
0.0
 11
282.727
 21
36.5069
 31
0.0
  0
LINE
  8
0
 62
     0
 10
282.727
 20
36.5069
 30
0.0
 11
281.926
 21
36.5069
 31
0.0
  0
LINE
  8
0
 62
     0
 10
281.926
 20
36.5069
 30
0.0
 11
281.926
 21
33.4078
 31
0.0
  0
LINE
  8
0
 62
     0
 10
281.926
 20
33.4078
 30
0.0
 11
282.727
 21
33.4078
 31
0.0
  0
LINE
  8
0
 62
     0
 10
282.727
 20
33.4078
 30
0.0
 11
282.727
 21
27.6076
 31
0.0
  0
LINE
  8
0
 62
     0
 10
282.727
 20
27.6076
 30
0.0
 11
281.926
 21
27.6076
 31
0.0
  0
LINE
  8
0
 62
     0
 10
281.926
 20
27.6076
 30
0.0
 11
281.926
 21
24.5071
 31
0.0
  0
LINE
  8
0
 62
     0
 10
281.926
 20
24.5071
 30
0.0
 11
282.727
 21
24.5071
 31
0.0
  0
LINE
  8
0
 62
     0
 10
282.727
 20
24.5071
 30
0.0
 11
282.727
 21
23.5079
 31
0.0
  0
LINE
  8
0
 62
     0
 10
282.727
 20
23.5079
 30
0.0
 11
296.726
 21
23.5079
 31
0.0
  0
LINE
  8
0
 62
     0
 10
296.726
 20
23.5079
 30
0.0
 11
296.726
 21
24.5071
 31
0.0
  0
LINE
  8
0
 62
     0
 10
296.726
 20
24.5071
 30
0.0
 11
297.527
 21
24.5071
 31
0.0
  0
LINE
  8
0
 62
     0
 10
297.527
 20
24.5071
 30
0.0
 11
297.527
 21
27.6076
 31
0.0
  0
LINE
  8
0
 62
     0
 10
297.527
 20
27.6076
 30
0.0
 11
296.726
 21
27.6076
 31
0.0
  0
LINE
  8
0
 62
     0
 10
296.726
 20
27.6076
 30
0.0
 11
296.726
 21
33.4078
 31
0.0
  0
LINE
  8
0
 62
     0
 10
296.726
 20
33.4078
 30
0.0
 11
297.527
 21
33.4078
 31
0.0
  0
LINE
  8
0
 62
     0
 10
297.527
 20
33.4078
 30
0.0
 11
297.527
 21
36.5069
 31
0.0
  0
LINE
  8
0
 62
     0
 10
297.527
 20
36.5069
 30
0.0
 11
296.726
 21
36.5069
 31
0.0
  0
LINE
  8
0
 62
     0
 10
296.726
 20
36.5069
 30
0.0
 11
296.726
 21
37.5073
 31
0.0
  0
LINE
  8
0
 62
     0
 10
296.726
 20
37.5073
 30
0.0
 11
282.727
 21
37.5073
 31
0.0
  0
LINE
  8
0
 62
     0
 10
256.533
 20
37.5073
 30
0.0
 11
256.533
 21
36.5069
 31
0.0
  0
LINE
  8
0
 62
     0
 10
256.533
 20
36.5069
 30
0.0
 11
255.732
 21
36.5069
 31
0.0
  0
LINE
  8
0
 62
     0
 10
255.732
 20
36.5069
 30
0.0
 11
255.732
 21
33.4078
 31
0.0
  0
LINE
  8
0
 62
     0
 10
255.732
 20
33.4078
 30
0.0
 11
256.533
 21
33.4078
 31
0.0
  0
LINE
  8
0
 62
     0
 10
256.533
 20
33.4078
 30
0.0
 11
256.533
 21
27.6076
 31
0.0
  0
LINE
  8
0
 62
     0
 10
256.533
 20
27.6076
 30
0.0
 11
255.732
 21
27.6076
 31
0.0
  0
LINE
  8
0
 62
     0
 10
255.732
 20
27.6076
 30
0.0
 11
255.732
 21
24.5071
 31
0.0
  0
LINE
  8
0
 62
     0
 10
255.732
 20
24.5071
 30
0.0
 11
256.533
 21
24.5071
 31
0.0
  0
LINE
  8
0
 62
     0
 10
256.533
 20
24.5071
 30
0.0
 11
256.533
 21
23.5079
 31
0.0
  0
LINE
  8
0
 62
     0
 10
256.533
 20
23.5079
 30
0.0
 11
270.532
 21
23.5079
 31
0.0
  0
LINE
  8
0
 62
     0
 10
270.532
 20
23.5079
 30
0.0
 11
270.532
 21
24.5071
 31
0.0
  0
LINE
  8
0
 62
     0
 10
270.532
 20
24.5071
 30
0.0
 11
271.333
 21
24.5071
 31
0.0
  0
LINE
  8
0
 62
     0
 10
271.333
 20
24.5071
 30
0.0
 11
271.333
 21
27.6076
 31
0.0
  0
LINE
  8
0
 62
     0
 10
271.333
 20
27.6076
 30
0.0
 11
270.532
 21
27.6076
 31
0.0
  0
LINE
  8
0
 62
     0
 10
270.532
 20
27.6076
 30
0.0
 11
270.532
 21
33.4078
 31
0.0
  0
LINE
  8
0
 62
     0
 10
270.532
 20
33.4078
 30
0.0
 11
271.333
 21
33.4078
 31
0.0
  0
LINE
  8
0
 62
     0
 10
271.333
 20
33.4078
 30
0.0
 11
271.333
 21
36.5069
 31
0.0
  0
LINE
  8
0
 62
     0
 10
271.333
 20
36.5069
 30
0.0
 11
270.532
 21
36.5069
 31
0.0
  0
LINE
  8
0
 62
     0
 10
270.532
 20
36.5069
 30
0.0
 11
270.532
 21
37.5073
 31
0.0
  0
LINE
  8
0
 62
     0
 10
270.532
 20
37.5073
 30
0.0
 11
256.533
 21
37.5073
 31
0.0
  0
LINE
  8
0
 62
     0
 10
237.483
 20
37.5073
 30
0.0
 11
237.483
 21
36.5069
 31
0.0
  0
LINE
  8
0
 62
     0
 10
237.483
 20
36.5069
 30
0.0
 11
236.682
 21
36.5069
 31
0.0
  0
LINE
  8
0
 62
     0
 10
236.682
 20
36.5069
 30
0.0
 11
236.682
 21
33.4078
 31
0.0
  0
LINE
  8
0
 62
     0
 10
236.682
 20
33.4078
 30
0.0
 11
237.483
 21
33.4078
 31
0.0
  0
LINE
  8
0
 62
     0
 10
237.483
 20
33.4078
 30
0.0
 11
237.483
 21
27.6076
 31
0.0
  0
LINE
  8
0
 62
     0
 10
237.483
 20
27.6076
 30
0.0
 11
236.682
 21
27.6076
 31
0.0
  0
LINE
  8
0
 62
     0
 10
236.682
 20
27.6076
 30
0.0
 11
236.682
 21
24.5071
 31
0.0
  0
LINE
  8
0
 62
     0
 10
236.682
 20
24.5071
 30
0.0
 11
237.483
 21
24.5071
 31
0.0
  0
LINE
  8
0
 62
     0
 10
237.483
 20
24.5071
 30
0.0
 11
237.483
 21
23.5079
 31
0.0
  0
LINE
  8
0
 62
     0
 10
237.483
 20
23.5079
 30
0.0
 11
251.482
 21
23.5079
 31
0.0
  0
LINE
  8
0
 62
     0
 10
251.482
 20
23.5079
 30
0.0
 11
251.482
 21
24.5071
 31
0.0
  0
LINE
  8
0
 62
     0
 10
251.482
 20
24.5071
 30
0.0
 11
252.283
 21
24.5071
 31
0.0
  0
LINE
  8
0
 62
     0
 10
252.283
 20
24.5071
 30
0.0
 11
252.283
 21
27.6076
 31
0.0
  0
LINE
  8
0
 62
     0
 10
252.283
 20
27.6076
 30
0.0
 11
251.482
 21
27.6076
 31
0.0
  0
LINE
  8
0
 62
     0
 10
251.482
 20
27.6076
 30
0.0
 11
251.482
 21
33.4078
 31
0.0
  0
LINE
  8
0
 62
     0
 10
251.482
 20
33.4078
 30
0.0
 11
252.283
 21
33.4078
 31
0.0
  0
LINE
  8
0
 62
     0
 10
252.283
 20
33.4078
 30
0.0
 11
252.283
 21
36.5069
 31
0.0
  0
LINE
  8
0
 62
     0
 10
252.283
 20
36.5069
 30
0.0
 11
251.482
 21
36.5069
 31
0.0
  0
LINE
  8
0
 62
     0
 10
251.482
 20
36.5069
 30
0.0
 11
251.482
 21
37.5073
 31
0.0
  0
LINE
  8
0
 62
     0
 10
251.482
 20
37.5073
 30
0.0
 11
237.483
 21
37.5073
 31
0.0
  0
LINE
  8
0
 62
     0
 10
218.433
 20
37.5073
 30
0.0
 11
218.433
 21
36.5069
 31
0.0
  0
LINE
  8
0
 62
     0
 10
218.433
 20
36.5069
 30
0.0
 11
217.632
 21
36.5069
 31
0.0
  0
LINE
  8
0
 62
     0
 10
217.632
 20
36.5069
 30
0.0
 11
217.632
 21
33.4078
 31
0.0
  0
LINE
  8
0
 62
     0
 10
217.632
 20
33.4078
 30
0.0
 11
218.433
 21
33.4078
 31
0.0
  0
LINE
  8
0
 62
     0
 10
218.433
 20
33.4078
 30
0.0
 11
218.433
 21
27.6076
 31
0.0
  0
LINE
  8
0
 62
     0
 10
218.433
 20
27.6076
 30
0.0
 11
217.632
 21
27.6076
 31
0.0
  0
LINE
  8
0
 62
     0
 10
217.632
 20
27.6076
 30
0.0
 11
217.632
 21
24.5071
 31
0.0
  0
LINE
  8
0
 62
     0
 10
217.632
 20
24.5071
 30
0.0
 11
218.433
 21
24.5071
 31
0.0
  0
LINE
  8
0
 62
     0
 10
218.433
 20
24.5071
 30
0.0
 11
218.433
 21
23.5079
 31
0.0
  0
LINE
  8
0
 62
     0
 10
218.433
 20
23.5079
 30
0.0
 11
232.432
 21
23.5079
 31
0.0
  0
LINE
  8
0
 62
     0
 10
232.432
 20
23.5079
 30
0.0
 11
232.432
 21
24.5071
 31
0.0
  0
LINE
  8
0
 62
     0
 10
232.432
 20
24.5071
 30
0.0
 11
233.233
 21
24.5071
 31
0.0
  0
LINE
  8
0
 62
     0
 10
233.233
 20
24.5071
 30
0.0
 11
233.233
 21
27.6076
 31
0.0
  0
LINE
  8
0
 62
     0
 10
233.233
 20
27.6076
 30
0.0
 11
232.432
 21
27.6076
 31
0.0
  0
LINE
  8
0
 62
     0
 10
232.432
 20
27.6076
 30
0.0
 11
232.432
 21
33.4078
 31
0.0
  0
LINE
  8
0
 62
     0
 10
232.432
 20
33.4078
 30
0.0
 11
233.233
 21
33.4078
 31
0.0
  0
LINE
  8
0
 62
     0
 10
233.233
 20
33.4078
 30
0.0
 11
233.233
 21
36.5069
 31
0.0
  0
LINE
  8
0
 62
     0
 10
233.233
 20
36.5069
 30
0.0
 11
232.432
 21
36.5069
 31
0.0
  0
LINE
  8
0
 62
     0
 10
232.432
 20
36.5069
 30
0.0
 11
232.432
 21
37.5073
 31
0.0
  0
LINE
  8
0
 62
     0
 10
232.432
 20
37.5073
 30
0.0
 11
218.433
 21
37.5073
 31
0.0
  0
LINE
  8
0
 62
     0
 10
199.383
 20
37.5073
 30
0.0
 11
199.383
 21
36.5069
 31
0.0
  0
LINE
  8
0
 62
     0
 10
199.383
 20
36.5069
 30
0.0
 11
198.582
 21
36.5069
 31
0.0
  0
LINE
  8
0
 62
     0
 10
198.582
 20
36.5069
 30
0.0
 11
198.582
 21
33.4078
 31
0.0
  0
LINE
  8
0
 62
     0
 10
198.582
 20
33.4078
 30
0.0
 11
199.383
 21
33.4078
 31
0.0
  0
LINE
  8
0
 62
     0
 10
199.383
 20
33.4078
 30
0.0
 11
199.383
 21
27.6076
 31
0.0
  0
LINE
  8
0
 62
     0
 10
199.383
 20
27.6076
 30
0.0
 11
198.582
 21
27.6076
 31
0.0
  0
LINE
  8
0
 62
     0
 10
198.582
 20
27.6076
 30
0.0
 11
198.582
 21
24.5071
 31
0.0
  0
LINE
  8
0
 62
     0
 10
198.582
 20
24.5071
 30
0.0
 11
199.383
 21
24.5071
 31
0.0
  0
LINE
  8
0
 62
     0
 10
199.383
 20
24.5071
 30
0.0
 11
199.383
 21
23.5079
 31
0.0
  0
LINE
  8
0
 62
     0
 10
199.383
 20
23.5079
 30
0.0
 11
213.382
 21
23.5079
 31
0.0
  0
LINE
  8
0
 62
     0
 10
213.382
 20
23.5079
 30
0.0
 11
213.382
 21
24.5071
 31
0.0
  0
LINE
  8
0
 62
     0
 10
213.382
 20
24.5071
 30
0.0
 11
214.183
 21
24.5071
 31
0.0
  0
LINE
  8
0
 62
     0
 10
214.183
 20
24.5071
 30
0.0
 11
214.183
 21
27.6076
 31
0.0
  0
LINE
  8
0
 62
     0
 10
214.183
 20
27.6076
 30
0.0
 11
213.382
 21
27.6076
 31
0.0
  0
LINE
  8
0
 62
     0
 10
213.382
 20
27.6076
 30
0.0
 11
213.382
 21
33.4078
 31
0.0
  0
LINE
  8
0
 62
     0
 10
213.382
 20
33.4078
 30
0.0
 11
214.183
 21
33.4078
 31
0.0
  0
LINE
  8
0
 62
     0
 10
214.183
 20
33.4078
 30
0.0
 11
214.183
 21
36.5069
 31
0.0
  0
LINE
  8
0
 62
     0
 10
214.183
 20
36.5069
 30
0.0
 11
213.382
 21
36.5069
 31
0.0
  0
LINE
  8
0
 62
     0
 10
213.382
 20
36.5069
 30
0.0
 11
213.382
 21
37.5073
 31
0.0
  0
LINE
  8
0
 62
     0
 10
213.382
 20
37.5073
 30
0.0
 11
199.383
 21
37.5073
 31
0.0
  0
LINE
  8
0
 62
     0
 10
180.333
 20
37.5073
 30
0.0
 11
180.333
 21
36.5069
 31
0.0
  0
LINE
  8
0
 62
     0
 10
180.333
 20
36.5069
 30
0.0
 11
179.532
 21
36.5069
 31
0.0
  0
LINE
  8
0
 62
     0
 10
179.532
 20
36.5069
 30
0.0
 11
179.532
 21
33.4078
 31
0.0
  0
LINE
  8
0
 62
     0
 10
179.532
 20
33.4078
 30
0.0
 11
180.333
 21
33.4078
 31
0.0
  0
LINE
  8
0
 62
     0
 10
180.333
 20
33.4078
 30
0.0
 11
180.333
 21
27.6076
 31
0.0
  0
LINE
  8
0
 62
     0
 10
180.333
 20
27.6076
 30
0.0
 11
179.532
 21
27.6076
 31
0.0
  0
LINE
  8
0
 62
     0
 10
179.532
 20
27.6076
 30
0.0
 11
179.532
 21
24.5071
 31
0.0
  0
LINE
  8
0
 62
     0
 10
179.532
 20
24.5071
 30
0.0
 11
180.333
 21
24.5071
 31
0.0
  0
LINE
  8
0
 62
     0
 10
180.333
 20
24.5071
 30
0.0
 11
180.333
 21
23.5079
 31
0.0
  0
LINE
  8
0
 62
     0
 10
180.333
 20
23.5079
 30
0.0
 11
194.332
 21
23.5079
 31
0.0
  0
LINE
  8
0
 62
     0
 10
194.332
 20
23.5079
 30
0.0
 11
194.332
 21
24.5071
 31
0.0
  0
LINE
  8
0
 62
     0
 10
194.332
 20
24.5071
 30
0.0
 11
195.133
 21
24.5071
 31
0.0
  0
LINE
  8
0
 62
     0
 10
195.133
 20
24.5071
 30
0.0
 11
195.133
 21
27.6076
 31
0.0
  0
LINE
  8
0
 62
     0
 10
195.133
 20
27.6076
 30
0.0
 11
194.332
 21
27.6076
 31
0.0
  0
LINE
  8
0
 62
     0
 10
194.332
 20
27.6076
 30
0.0
 11
194.332
 21
33.4078
 31
0.0
  0
LINE
  8
0
 62
     0
 10
194.332
 20
33.4078
 30
0.0
 11
195.133
 21
33.4078
 31
0.0
  0
LINE
  8
0
 62
     0
 10
195.133
 20
33.4078
 30
0.0
 11
195.133
 21
36.5069
 31
0.0
  0
LINE
  8
0
 62
     0
 10
195.133
 20
36.5069
 30
0.0
 11
194.332
 21
36.5069
 31
0.0
  0
LINE
  8
0
 62
     0
 10
194.332
 20
36.5069
 30
0.0
 11
194.332
 21
37.5073
 31
0.0
  0
LINE
  8
0
 62
     0
 10
194.332
 20
37.5073
 30
0.0
 11
180.333
 21
37.5073
 31
0.0
  0
LINE
  8
0
 62
     0
 10
161.283
 20
37.5073
 30
0.0
 11
161.283
 21
36.5069
 31
0.0
  0
LINE
  8
0
 62
     0
 10
161.283
 20
36.5069
 30
0.0
 11
160.482
 21
36.5069
 31
0.0
  0
LINE
  8
0
 62
     0
 10
160.482
 20
36.5069
 30
0.0
 11
160.482
 21
33.4078
 31
0.0
  0
LINE
  8
0
 62
     0
 10
160.482
 20
33.4078
 30
0.0
 11
161.283
 21
33.4078
 31
0.0
  0
LINE
  8
0
 62
     0
 10
161.283
 20
33.4078
 30
0.0
 11
161.283
 21
27.6076
 31
0.0
  0
LINE
  8
0
 62
     0
 10
161.283
 20
27.6076
 30
0.0
 11
160.482
 21
27.6076
 31
0.0
  0
LINE
  8
0
 62
     0
 10
160.482
 20
27.6076
 30
0.0
 11
160.482
 21
24.5071
 31
0.0
  0
LINE
  8
0
 62
     0
 10
160.482
 20
24.5071
 30
0.0
 11
161.283
 21
24.5071
 31
0.0
  0
LINE
  8
0
 62
     0
 10
161.283
 20
24.5071
 30
0.0
 11
161.283
 21
23.5079
 31
0.0
  0
LINE
  8
0
 62
     0
 10
161.283
 20
23.5079
 30
0.0
 11
175.282
 21
23.5079
 31
0.0
  0
LINE
  8
0
 62
     0
 10
175.282
 20
23.5079
 30
0.0
 11
175.282
 21
24.5071
 31
0.0
  0
LINE
  8
0
 62
     0
 10
175.282
 20
24.5071
 30
0.0
 11
176.083
 21
24.5071
 31
0.0
  0
LINE
  8
0
 62
     0
 10
176.083
 20
24.5071
 30
0.0
 11
176.083
 21
27.6076
 31
0.0
  0
LINE
  8
0
 62
     0
 10
176.083
 20
27.6076
 30
0.0
 11
175.282
 21
27.6076
 31
0.0
  0
LINE
  8
0
 62
     0
 10
175.282
 20
27.6076
 30
0.0
 11
175.282
 21
33.4078
 31
0.0
  0
LINE
  8
0
 62
     0
 10
175.282
 20
33.4078
 30
0.0
 11
176.083
 21
33.4078
 31
0.0
  0
LINE
  8
0
 62
     0
 10
176.083
 20
33.4078
 30
0.0
 11
176.083
 21
36.5069
 31
0.0
  0
LINE
  8
0
 62
     0
 10
176.083
 20
36.5069
 30
0.0
 11
175.282
 21
36.5069
 31
0.0
  0
LINE
  8
0
 62
     0
 10
175.282
 20
36.5069
 30
0.0
 11
175.282
 21
37.5073
 31
0.0
  0
LINE
  8
0
 62
     0
 10
175.282
 20
37.5073
 30
0.0
 11
161.283
 21
37.5073
 31
0.0
  0
LINE
  8
0
 62
     0
 10
142.233
 20
37.5073
 30
0.0
 11
142.233
 21
36.5069
 31
0.0
  0
LINE
  8
0
 62
     0
 10
142.233
 20
36.5069
 30
0.0
 11
141.432
 21
36.5069
 31
0.0
  0
LINE
  8
0
 62
     0
 10
141.432
 20
36.5069
 30
0.0
 11
141.432
 21
33.4078
 31
0.0
  0
LINE
  8
0
 62
     0
 10
141.432
 20
33.4078
 30
0.0
 11
142.233
 21
33.4078
 31
0.0
  0
LINE
  8
0
 62
     0
 10
142.233
 20
33.4078
 30
0.0
 11
142.233
 21
27.6076
 31
0.0
  0
LINE
  8
0
 62
     0
 10
142.233
 20
27.6076
 30
0.0
 11
141.432
 21
27.6076
 31
0.0
  0
LINE
  8
0
 62
     0
 10
141.432
 20
27.6076
 30
0.0
 11
141.432
 21
24.5071
 31
0.0
  0
LINE
  8
0
 62
     0
 10
141.432
 20
24.5071
 30
0.0
 11
142.233
 21
24.5071
 31
0.0
  0
LINE
  8
0
 62
     0
 10
142.233
 20
24.5071
 30
0.0
 11
142.233
 21
23.5079
 31
0.0
  0
LINE
  8
0
 62
     0
 10
142.233
 20
23.5079
 30
0.0
 11
156.232
 21
23.5079
 31
0.0
  0
LINE
  8
0
 62
     0
 10
156.232
 20
23.5079
 30
0.0
 11
156.232
 21
24.5071
 31
0.0
  0
LINE
  8
0
 62
     0
 10
156.232
 20
24.5071
 30
0.0
 11
157.033
 21
24.5071
 31
0.0
  0
LINE
  8
0
 62
     0
 10
157.033
 20
24.5071
 30
0.0
 11
157.033
 21
27.6076
 31
0.0
  0
LINE
  8
0
 62
     0
 10
157.033
 20
27.6076
 30
0.0
 11
156.232
 21
27.6076
 31
0.0
  0
LINE
  8
0
 62
     0
 10
156.232
 20
27.6076
 30
0.0
 11
156.232
 21
33.4078
 31
0.0
  0
LINE
  8
0
 62
     0
 10
156.232
 20
33.4078
 30
0.0
 11
157.033
 21
33.4078
 31
0.0
  0
LINE
  8
0
 62
     0
 10
157.033
 20
33.4078
 30
0.0
 11
157.033
 21
36.5069
 31
0.0
  0
LINE
  8
0
 62
     0
 10
157.033
 20
36.5069
 30
0.0
 11
156.232
 21
36.5069
 31
0.0
  0
LINE
  8
0
 62
     0
 10
156.232
 20
36.5069
 30
0.0
 11
156.232
 21
37.5073
 31
0.0
  0
LINE
  8
0
 62
     0
 10
156.232
 20
37.5073
 30
0.0
 11
142.233
 21
37.5073
 31
0.0
  0
LINE
  8
0
 62
     0
 10
123.182
 20
37.5073
 30
0.0
 11
123.182
 21
36.5069
 31
0.0
  0
LINE
  8
0
 62
     0
 10
123.182
 20
36.5069
 30
0.0
 11
122.382
 21
36.5069
 31
0.0
  0
LINE
  8
0
 62
     0
 10
122.382
 20
36.5069
 30
0.0
 11
122.382
 21
33.4078
 31
0.0
  0
LINE
  8
0
 62
     0
 10
122.382
 20
33.4078
 30
0.0
 11
123.182
 21
33.4078
 31
0.0
  0
LINE
  8
0
 62
     0
 10
123.182
 20
33.4078
 30
0.0
 11
123.182
 21
27.6076
 31
0.0
  0
LINE
  8
0
 62
     0
 10
123.182
 20
27.6076
 30
0.0
 11
122.382
 21
27.6076
 31
0.0
  0
LINE
  8
0
 62
     0
 10
122.382
 20
27.6076
 30
0.0
 11
122.382
 21
24.5071
 31
0.0
  0
LINE
  8
0
 62
     0
 10
122.382
 20
24.5071
 30
0.0
 11
123.182
 21
24.5071
 31
0.0
  0
LINE
  8
0
 62
     0
 10
123.182
 20
24.5071
 30
0.0
 11
123.182
 21
23.5079
 31
0.0
  0
LINE
  8
0
 62
     0
 10
123.182
 20
23.5079
 30
0.0
 11
137.182
 21
23.5079
 31
0.0
  0
LINE
  8
0
 62
     0
 10
137.182
 20
23.5079
 30
0.0
 11
137.182
 21
24.5071
 31
0.0
  0
LINE
  8
0
 62
     0
 10
137.182
 20
24.5071
 30
0.0
 11
137.983
 21
24.5071
 31
0.0
  0
LINE
  8
0
 62
     0
 10
137.983
 20
24.5071
 30
0.0
 11
137.983
 21
27.6076
 31
0.0
  0
LINE
  8
0
 62
     0
 10
137.983
 20
27.6076
 30
0.0
 11
137.182
 21
27.6076
 31
0.0
  0
LINE
  8
0
 62
     0
 10
137.182
 20
27.6076
 30
0.0
 11
137.182
 21
33.4078
 31
0.0
  0
LINE
  8
0
 62
     0
 10
137.182
 20
33.4078
 30
0.0
 11
137.983
 21
33.4078
 31
0.0
  0
LINE
  8
0
 62
     0
 10
137.983
 20
33.4078
 30
0.0
 11
137.983
 21
36.5069
 31
0.0
  0
LINE
  8
0
 62
     0
 10
137.983
 20
36.5069
 30
0.0
 11
137.182
 21
36.5069
 31
0.0
  0
LINE
  8
0
 62
     0
 10
137.182
 20
36.5069
 30
0.0
 11
137.182
 21
37.5073
 31
0.0
  0
LINE
  8
0
 62
     0
 10
137.182
 20
37.5073
 30
0.0
 11
123.182
 21
37.5073
 31
0.0
  0
LINE
  8
0
 62
     0
 10
104.133
 20
37.5073
 30
0.0
 11
104.133
 21
36.5069
 31
0.0
  0
LINE
  8
0
 62
     0
 10
104.133
 20
36.5069
 30
0.0
 11
103.332
 21
36.5069
 31
0.0
  0
LINE
  8
0
 62
     0
 10
103.332
 20
36.5069
 30
0.0
 11
103.332
 21
33.4078
 31
0.0
  0
LINE
  8
0
 62
     0
 10
103.332
 20
33.4078
 30
0.0
 11
104.133
 21
33.4078
 31
0.0
  0
LINE
  8
0
 62
     0
 10
104.133
 20
33.4078
 30
0.0
 11
104.133
 21
27.6076
 31
0.0
  0
LINE
  8
0
 62
     0
 10
104.133
 20
27.6076
 30
0.0
 11
103.332
 21
27.6076
 31
0.0
  0
LINE
  8
0
 62
     0
 10
103.332
 20
27.6076
 30
0.0
 11
103.332
 21
24.5071
 31
0.0
  0
LINE
  8
0
 62
     0
 10
103.332
 20
24.5071
 30
0.0
 11
104.133
 21
24.5071
 31
0.0
  0
LINE
  8
0
 62
     0
 10
104.133
 20
24.5071
 30
0.0
 11
104.133
 21
23.5079
 31
0.0
  0
LINE
  8
0
 62
     0
 10
104.133
 20
23.5079
 30
0.0
 11
118.132
 21
23.5079
 31
0.0
  0
LINE
  8
0
 62
     0
 10
118.132
 20
23.5079
 30
0.0
 11
118.132
 21
24.5071
 31
0.0
  0
LINE
  8
0
 62
     0
 10
118.132
 20
24.5071
 30
0.0
 11
118.933
 21
24.5071
 31
0.0
  0
LINE
  8
0
 62
     0
 10
118.933
 20
24.5071
 30
0.0
 11
118.933
 21
27.6076
 31
0.0
  0
LINE
  8
0
 62
     0
 10
118.933
 20
27.6076
 30
0.0
 11
118.132
 21
27.6076
 31
0.0
  0
LINE
  8
0
 62
     0
 10
118.132
 20
27.6076
 30
0.0
 11
118.132
 21
33.4078
 31
0.0
  0
LINE
  8
0
 62
     0
 10
118.132
 20
33.4078
 30
0.0
 11
118.933
 21
33.4078
 31
0.0
  0
LINE
  8
0
 62
     0
 10
118.933
 20
33.4078
 30
0.0
 11
118.933
 21
36.5069
 31
0.0
  0
LINE
  8
0
 62
     0
 10
118.933
 20
36.5069
 30
0.0
 11
118.132
 21
36.5069
 31
0.0
  0
LINE
  8
0
 62
     0
 10
118.132
 20
36.5069
 30
0.0
 11
118.132
 21
37.5073
 31
0.0
  0
LINE
  8
0
 62
     0
 10
118.132
 20
37.5073
 30
0.0
 11
104.133
 21
37.5073
 31
0.0
  0
LINE
  8
0
 62
     0
 10
77.9392
 20
37.5073
 30
0.0
 11
77.9392
 21
36.5069
 31
0.0
  0
LINE
  8
0
 62
     0
 10
77.9392
 20
36.5069
 30
0.0
 11
77.1384
 21
36.5069
 31
0.0
  0
LINE
  8
0
 62
     0
 10
77.1384
 20
36.5069
 30
0.0
 11
77.1384
 21
33.4078
 31
0.0
  0
LINE
  8
0
 62
     0
 10
77.1384
 20
33.4078
 30
0.0
 11
77.9392
 21
33.4078
 31
0.0
  0
LINE
  8
0
 62
     0
 10
77.9392
 20
33.4078
 30
0.0
 11
77.9392
 21
27.6076
 31
0.0
  0
LINE
  8
0
 62
     0
 10
77.9392
 20
27.6076
 30
0.0
 11
77.1384
 21
27.6076
 31
0.0
  0
LINE
  8
0
 62
     0
 10
77.1384
 20
27.6076
 30
0.0
 11
77.1384
 21
24.5071
 31
0.0
  0
LINE
  8
0
 62
     0
 10
77.1384
 20
24.5071
 30
0.0
 11
77.9392
 21
24.5071
 31
0.0
  0
LINE
  8
0
 62
     0
 10
77.9392
 20
24.5071
 30
0.0
 11
77.9392
 21
23.5079
 31
0.0
  0
LINE
  8
0
 62
     0
 10
77.9392
 20
23.5079
 30
0.0
 11
91.9385
 21
23.5079
 31
0.0
  0
LINE
  8
0
 62
     0
 10
91.9385
 20
23.5079
 30
0.0
 11
91.9385
 21
24.5071
 31
0.0
  0
LINE
  8
0
 62
     0
 10
91.9385
 20
24.5071
 30
0.0
 11
92.7379
 21
24.5071
 31
0.0
  0
LINE
  8
0
 62
     0
 10
92.7379
 20
24.5071
 30
0.0
 11
92.7379
 21
27.6076
 31
0.0
  0
LINE
  8
0
 62
     0
 10
92.7379
 20
27.6076
 30
0.0
 11
91.9385
 21
27.6076
 31
0.0
  0
LINE
  8
0
 62
     0
 10
91.9385
 20
27.6076
 30
0.0
 11
91.9385
 21
33.4078
 31
0.0
  0
LINE
  8
0
 62
     0
 10
91.9385
 20
33.4078
 30
0.0
 11
92.7379
 21
33.4078
 31
0.0
  0
LINE
  8
0
 62
     0
 10
92.7379
 20
33.4078
 30
0.0
 11
92.7379
 21
36.5069
 31
0.0
  0
LINE
  8
0
 62
     0
 10
92.7379
 20
36.5069
 30
0.0
 11
91.9385
 21
36.5069
 31
0.0
  0
LINE
  8
0
 62
     0
 10
91.9385
 20
36.5069
 30
0.0
 11
91.9385
 21
37.5073
 31
0.0
  0
LINE
  8
0
 62
     0
 10
91.9385
 20
37.5073
 30
0.0
 11
77.9392
 21
37.5073
 31
0.0
  0
LINE
  8
0
 62
     0
 10
42.2204
 20
37.5073
 30
0.0
 11
42.2204
 21
36.5069
 31
0.0
  0
LINE
  8
0
 62
     0
 10
42.2204
 20
36.5069
 30
0.0
 11
41.4211
 21
36.5069
 31
0.0
  0
LINE
  8
0
 62
     0
 10
41.4211
 20
36.5069
 30
0.0
 11
41.4211
 21
33.4078
 31
0.0
  0
LINE
  8
0
 62
     0
 10
41.4211
 20
33.4078
 30
0.0
 11
42.2204
 21
33.4078
 31
0.0
  0
LINE
  8
0
 62
     0
 10
42.2204
 20
33.4078
 30
0.0
 11
42.2204
 21
27.6076
 31
0.0
  0
LINE
  8
0
 62
     0
 10
42.2204
 20
27.6076
 30
0.0
 11
41.4211
 21
27.6076
 31
0.0
  0
LINE
  8
0
 62
     0
 10
41.4211
 20
27.6076
 30
0.0
 11
41.4211
 21
24.5071
 31
0.0
  0
LINE
  8
0
 62
     0
 10
41.4211
 20
24.5071
 30
0.0
 11
42.2204
 21
24.5071
 31
0.0
  0
LINE
  8
0
 62
     0
 10
42.2204
 20
24.5071
 30
0.0
 11
42.2204
 21
23.5079
 31
0.0
  0
LINE
  8
0
 62
     0
 10
42.2204
 20
23.5079
 30
0.0
 11
56.2197
 21
23.5079
 31
0.0
  0
LINE
  8
0
 62
     0
 10
56.2197
 20
23.5079
 30
0.0
 11
56.2197
 21
24.5071
 31
0.0
  0
LINE
  8
0
 62
     0
 10
56.2197
 20
24.5071
 30
0.0
 11
57.0205
 21
24.5071
 31
0.0
  0
LINE
  8
0
 62
     0
 10
57.0205
 20
24.5071
 30
0.0
 11
57.0205
 21
27.6076
 31
0.0
  0
LINE
  8
0
 62
     0
 10
57.0205
 20
27.6076
 30
0.0
 11
56.2197
 21
27.6076
 31
0.0
  0
LINE
  8
0
 62
     0
 10
56.2197
 20
27.6076
 30
0.0
 11
56.2197
 21
33.4078
 31
0.0
  0
LINE
  8
0
 62
     0
 10
56.2197
 20
33.4078
 30
0.0
 11
57.0205
 21
33.4078
 31
0.0
  0
LINE
  8
0
 62
     0
 10
57.0205
 20
33.4078
 30
0.0
 11
57.0205
 21
36.5069
 31
0.0
  0
LINE
  8
0
 62
     0
 10
57.0205
 20
36.5069
 30
0.0
 11
56.2197
 21
36.5069
 31
0.0
  0
LINE
  8
0
 62
     0
 10
56.2197
 20
36.5069
 30
0.0
 11
56.2197
 21
37.5073
 31
0.0
  0
LINE
  8
0
 62
     0
 10
56.2197
 20
37.5073
 30
0.0
 11
42.2204
 21
37.5073
 31
0.0
  0
LINE
  8
0
 62
     0
 10
23.1703
 20
37.5073
 30
0.0
 11
23.1703
 21
36.5069
 31
0.0
  0
LINE
  8
0
 62
     0
 10
23.1703
 20
36.5069
 30
0.0
 11
22.3711
 21
36.5069
 31
0.0
  0
LINE
  8
0
 62
     0
 10
22.3711
 20
36.5069
 30
0.0
 11
22.3711
 21
33.4078
 31
0.0
  0
LINE
  8
0
 62
     0
 10
22.3711
 20
33.4078
 30
0.0
 11
23.1703
 21
33.4078
 31
0.0
  0
LINE
  8
0
 62
     0
 10
23.1703
 20
33.4078
 30
0.0
 11
23.1703
 21
27.6076
 31
0.0
  0
LINE
  8
0
 62
     0
 10
23.1703
 20
27.6076
 30
0.0
 11
22.3711
 21
27.6076
 31
0.0
  0
LINE
  8
0
 62
     0
 10
22.3711
 20
27.6076
 30
0.0
 11
22.3711
 21
24.5071
 31
0.0
  0
LINE
  8
0
 62
     0
 10
22.3711
 20
24.5071
 30
0.0
 11
23.1703
 21
24.5071
 31
0.0
  0
LINE
  8
0
 62
     0
 10
23.1703
 20
24.5071
 30
0.0
 11
23.1703
 21
23.5079
 31
0.0
  0
LINE
  8
0
 62
     0
 10
23.1703
 20
23.5079
 30
0.0
 11
37.1697
 21
23.5079
 31
0.0
  0
LINE
  8
0
 62
     0
 10
37.1697
 20
23.5079
 30
0.0
 11
37.1697
 21
24.5071
 31
0.0
  0
LINE
  8
0
 62
     0
 10
37.1697
 20
24.5071
 30
0.0
 11
37.9705
 21
24.5071
 31
0.0
  0
LINE
  8
0
 62
     0
 10
37.9705
 20
24.5071
 30
0.0
 11
37.9705
 21
27.6076
 31
0.0
  0
LINE
  8
0
 62
     0
 10
37.9705
 20
27.6076
 30
0.0
 11
37.1697
 21
27.6076
 31
0.0
  0
LINE
  8
0
 62
     0
 10
37.1697
 20
27.6076
 30
0.0
 11
37.1697
 21
33.4078
 31
0.0
  0
LINE
  8
0
 62
     0
 10
37.1697
 20
33.4078
 30
0.0
 11
37.9705
 21
33.4078
 31
0.0
  0
LINE
  8
0
 62
     0
 10
37.9705
 20
33.4078
 30
0.0
 11
37.9705
 21
36.5069
 31
0.0
  0
LINE
  8
0
 62
     0
 10
37.9705
 20
36.5069
 30
0.0
 11
37.1697
 21
36.5069
 31
0.0
  0
LINE
  8
0
 62
     0
 10
37.1697
 20
36.5069
 30
0.0
 11
37.1697
 21
37.5073
 31
0.0
  0
LINE
  8
0
 62
     0
 10
37.1697
 20
37.5073
 30
0.0
 11
23.1703
 21
37.5073
 31
0.0
  0
LINE
  8
0
 62
     0
 10
4.11896
 20
37.5073
 30
0.0
 11
4.11896
 21
36.5069
 31
0.0
  0
LINE
  8
0
 62
     0
 10
4.11896
 20
36.5069
 30
0.0
 11
3.3197
 21
36.5069
 31
0.0
  0
LINE
  8
0
 62
     0
 10
3.3197
 20
36.5069
 30
0.0
 11
3.3197
 21
33.4078
 31
0.0
  0
LINE
  8
0
 62
     0
 10
3.3197
 20
33.4078
 30
0.0
 11
4.11896
 21
33.4078
 31
0.0
  0
LINE
  8
0
 62
     0
 10
4.11896
 20
33.4078
 30
0.0
 11
4.11896
 21
27.6076
 31
0.0
  0
LINE
  8
0
 62
     0
 10
4.11896
 20
27.6076
 30
0.0
 11
3.3197
 21
27.6076
 31
0.0
  0
LINE
  8
0
 62
     0
 10
3.3197
 20
27.6076
 30
0.0
 11
3.3197
 21
24.5071
 31
0.0
  0
LINE
  8
0
 62
     0
 10
3.3197
 20
24.5071
 30
0.0
 11
4.11896
 21
24.5071
 31
0.0
  0
LINE
  8
0
 62
     0
 10
4.11896
 20
24.5071
 30
0.0
 11
4.11896
 21
23.5079
 31
0.0
  0
LINE
  8
0
 62
     0
 10
4.11896
 20
23.5079
 30
0.0
 11
18.1198
 21
23.5079
 31
0.0
  0
LINE
  8
0
 62
     0
 10
18.1198
 20
23.5079
 30
0.0
 11
18.1198
 21
24.5071
 31
0.0
  0
LINE
  8
0
 62
     0
 10
18.1198
 20
24.5071
 30
0.0
 11
18.9205
 21
24.5071
 31
0.0
  0
LINE
  8
0
 62
     0
 10
18.9205
 20
24.5071
 30
0.0
 11
18.9205
 21
27.6076
 31
0.0
  0
LINE
  8
0
 62
     0
 10
18.9205
 20
27.6076
 30
0.0
 11
18.1198
 21
27.6076
 31
0.0
  0
LINE
  8
0
 62
     0
 10
18.1198
 20
27.6076
 30
0.0
 11
18.1198
 21
33.4078
 31
0.0
  0
LINE
  8
0
 62
     0
 10
18.1198
 20
33.4078
 30
0.0
 11
18.9205
 21
33.4078
 31
0.0
  0
LINE
  8
0
 62
     0
 10
18.9205
 20
33.4078
 30
0.0
 11
18.9205
 21
36.5069
 31
0.0
  0
LINE
  8
0
 62
     0
 10
18.9205
 20
36.5069
 30
0.0
 11
18.1198
 21
36.5069
 31
0.0
  0
LINE
  8
0
 62
     0
 10
18.1198
 20
36.5069
 30
0.0
 11
18.1198
 21
37.5073
 31
0.0
  0
LINE
  8
0
 62
     0
 10
18.1198
 20
37.5073
 30
0.0
 11
4.11896
 21
37.5073
 31
0.0
  0
LINE
  8
0
 62
     0
 10
266.058
 20
56.5587
 30
0.0
 11
266.058
 21
55.5583
 31
0.0
  0
LINE
  8
0
 62
     0
 10
266.058
 20
55.5583
 30
0.0
 11
265.257
 21
55.5583
 31
0.0
  0
LINE
  8
0
 62
     0
 10
265.257
 20
55.5583
 30
0.0
 11
265.257
 21
52.4577
 31
0.0
  0
LINE
  8
0
 62
     0
 10
265.257
 20
52.4577
 30
0.0
 11
266.058
 21
52.4577
 31
0.0
  0
LINE
  8
0
 62
     0
 10
266.058
 20
52.4577
 30
0.0
 11
266.058
 21
46.6577
 31
0.0
  0
LINE
  8
0
 62
     0
 10
266.058
 20
46.6577
 30
0.0
 11
265.257
 21
46.6577
 31
0.0
  0
LINE
  8
0
 62
     0
 10
265.257
 20
46.6577
 30
0.0
 11
265.257
 21
43.5585
 31
0.0
  0
LINE
  8
0
 62
     0
 10
265.257
 20
43.5585
 30
0.0
 11
266.058
 21
43.5585
 31
0.0
  0
LINE
  8
0
 62
     0
 10
266.058
 20
43.5585
 30
0.0
 11
266.058
 21
42.5581
 31
0.0
  0
LINE
  8
0
 62
     0
 10
266.058
 20
42.5581
 30
0.0
 11
280.057
 21
42.5581
 31
0.0
  0
LINE
  8
0
 62
     0
 10
280.057
 20
42.5581
 30
0.0
 11
280.057
 21
43.5585
 31
0.0
  0
LINE
  8
0
 62
     0
 10
280.057
 20
43.5585
 30
0.0
 11
280.858
 21
43.5585
 31
0.0
  0
LINE
  8
0
 62
     0
 10
280.858
 20
43.5585
 30
0.0
 11
280.858
 21
46.6577
 31
0.0
  0
LINE
  8
0
 62
     0
 10
280.858
 20
46.6577
 30
0.0
 11
280.057
 21
46.6577
 31
0.0
  0
LINE
  8
0
 62
     0
 10
280.057
 20
46.6577
 30
0.0
 11
280.057
 21
52.4577
 31
0.0
  0
LINE
  8
0
 62
     0
 10
280.057
 20
52.4577
 30
0.0
 11
280.858
 21
52.4577
 31
0.0
  0
LINE
  8
0
 62
     0
 10
280.858
 20
52.4577
 30
0.0
 11
280.858
 21
55.5583
 31
0.0
  0
LINE
  8
0
 62
     0
 10
280.858
 20
55.5583
 30
0.0
 11
280.057
 21
55.5583
 31
0.0
  0
LINE
  8
0
 62
     0
 10
280.057
 20
55.5583
 30
0.0
 11
280.057
 21
56.5587
 31
0.0
  0
LINE
  8
0
 62
     0
 10
280.057
 20
56.5587
 30
0.0
 11
266.058
 21
56.5587
 31
0.0
  0
LINE
  8
0
 62
     0
 10
247.008
 20
56.5587
 30
0.0
 11
247.008
 21
55.5583
 31
0.0
  0
LINE
  8
0
 62
     0
 10
247.008
 20
55.5583
 30
0.0
 11
246.207
 21
55.5583
 31
0.0
  0
LINE
  8
0
 62
     0
 10
246.207
 20
55.5583
 30
0.0
 11
246.207
 21
52.4577
 31
0.0
  0
LINE
  8
0
 62
     0
 10
246.207
 20
52.4577
 30
0.0
 11
247.008
 21
52.4577
 31
0.0
  0
LINE
  8
0
 62
     0
 10
247.008
 20
52.4577
 30
0.0
 11
247.008
 21
46.6577
 31
0.0
  0
LINE
  8
0
 62
     0
 10
247.008
 20
46.6577
 30
0.0
 11
246.207
 21
46.6577
 31
0.0
  0
LINE
  8
0
 62
     0
 10
246.207
 20
46.6577
 30
0.0
 11
246.207
 21
43.5585
 31
0.0
  0
LINE
  8
0
 62
     0
 10
246.207
 20
43.5585
 30
0.0
 11
247.008
 21
43.5585
 31
0.0
  0
LINE
  8
0
 62
     0
 10
247.008
 20
43.5585
 30
0.0
 11
247.008
 21
42.5581
 31
0.0
  0
LINE
  8
0
 62
     0
 10
247.008
 20
42.5581
 30
0.0
 11
261.007
 21
42.5581
 31
0.0
  0
LINE
  8
0
 62
     0
 10
261.007
 20
42.5581
 30
0.0
 11
261.007
 21
43.5585
 31
0.0
  0
LINE
  8
0
 62
     0
 10
261.007
 20
43.5585
 30
0.0
 11
261.808
 21
43.5585
 31
0.0
  0
LINE
  8
0
 62
     0
 10
261.808
 20
43.5585
 30
0.0
 11
261.808
 21
46.6577
 31
0.0
  0
LINE
  8
0
 62
     0
 10
261.808
 20
46.6577
 30
0.0
 11
261.007
 21
46.6577
 31
0.0
  0
LINE
  8
0
 62
     0
 10
261.007
 20
46.6577
 30
0.0
 11
261.007
 21
52.4577
 31
0.0
  0
LINE
  8
0
 62
     0
 10
261.007
 20
52.4577
 30
0.0
 11
261.808
 21
52.4577
 31
0.0
  0
LINE
  8
0
 62
     0
 10
261.808
 20
52.4577
 30
0.0
 11
261.808
 21
55.5583
 31
0.0
  0
LINE
  8
0
 62
     0
 10
261.808
 20
55.5583
 30
0.0
 11
261.007
 21
55.5583
 31
0.0
  0
LINE
  8
0
 62
     0
 10
261.007
 20
55.5583
 30
0.0
 11
261.007
 21
56.5587
 31
0.0
  0
LINE
  8
0
 62
     0
 10
261.007
 20
56.5587
 30
0.0
 11
247.008
 21
56.5587
 31
0.0
  0
LINE
  8
0
 62
     0
 10
227.958
 20
56.5587
 30
0.0
 11
227.958
 21
55.5583
 31
0.0
  0
LINE
  8
0
 62
     0
 10
227.958
 20
55.5583
 30
0.0
 11
227.157
 21
55.5583
 31
0.0
  0
LINE
  8
0
 62
     0
 10
227.157
 20
55.5583
 30
0.0
 11
227.157
 21
52.4577
 31
0.0
  0
LINE
  8
0
 62
     0
 10
227.157
 20
52.4577
 30
0.0
 11
227.958
 21
52.4577
 31
0.0
  0
LINE
  8
0
 62
     0
 10
227.958
 20
52.4577
 30
0.0
 11
227.958
 21
46.6577
 31
0.0
  0
LINE
  8
0
 62
     0
 10
227.958
 20
46.6577
 30
0.0
 11
227.157
 21
46.6577
 31
0.0
  0
LINE
  8
0
 62
     0
 10
227.157
 20
46.6577
 30
0.0
 11
227.157
 21
43.5585
 31
0.0
  0
LINE
  8
0
 62
     0
 10
227.157
 20
43.5585
 30
0.0
 11
227.958
 21
43.5585
 31
0.0
  0
LINE
  8
0
 62
     0
 10
227.958
 20
43.5585
 30
0.0
 11
227.958
 21
42.5581
 31
0.0
  0
LINE
  8
0
 62
     0
 10
227.958
 20
42.5581
 30
0.0
 11
241.957
 21
42.5581
 31
0.0
  0
LINE
  8
0
 62
     0
 10
241.957
 20
42.5581
 30
0.0
 11
241.957
 21
43.5585
 31
0.0
  0
LINE
  8
0
 62
     0
 10
241.957
 20
43.5585
 30
0.0
 11
242.758
 21
43.5585
 31
0.0
  0
LINE
  8
0
 62
     0
 10
242.758
 20
43.5585
 30
0.0
 11
242.758
 21
46.6577
 31
0.0
  0
LINE
  8
0
 62
     0
 10
242.758
 20
46.6577
 30
0.0
 11
241.957
 21
46.6577
 31
0.0
  0
LINE
  8
0
 62
     0
 10
241.957
 20
46.6577
 30
0.0
 11
241.957
 21
52.4577
 31
0.0
  0
LINE
  8
0
 62
     0
 10
241.957
 20
52.4577
 30
0.0
 11
242.758
 21
52.4577
 31
0.0
  0
LINE
  8
0
 62
     0
 10
242.758
 20
52.4577
 30
0.0
 11
242.758
 21
55.5583
 31
0.0
  0
LINE
  8
0
 62
     0
 10
242.758
 20
55.5583
 30
0.0
 11
241.957
 21
55.5583
 31
0.0
  0
LINE
  8
0
 62
     0
 10
241.957
 20
55.5583
 30
0.0
 11
241.957
 21
56.5587
 31
0.0
  0
LINE
  8
0
 62
     0
 10
241.957
 20
56.5587
 30
0.0
 11
227.958
 21
56.5587
 31
0.0
  0
LINE
  8
0
 62
     0
 10
208.908
 20
56.5587
 30
0.0
 11
208.908
 21
55.5583
 31
0.0
  0
LINE
  8
0
 62
     0
 10
208.908
 20
55.5583
 30
0.0
 11
208.107
 21
55.5583
 31
0.0
  0
LINE
  8
0
 62
     0
 10
208.107
 20
55.5583
 30
0.0
 11
208.107
 21
52.4577
 31
0.0
  0
LINE
  8
0
 62
     0
 10
208.107
 20
52.4577
 30
0.0
 11
208.908
 21
52.4577
 31
0.0
  0
LINE
  8
0
 62
     0
 10
208.908
 20
52.4577
 30
0.0
 11
208.908
 21
46.6577
 31
0.0
  0
LINE
  8
0
 62
     0
 10
208.908
 20
46.6577
 30
0.0
 11
208.107
 21
46.6577
 31
0.0
  0
LINE
  8
0
 62
     0
 10
208.107
 20
46.6577
 30
0.0
 11
208.107
 21
43.5585
 31
0.0
  0
LINE
  8
0
 62
     0
 10
208.107
 20
43.5585
 30
0.0
 11
208.908
 21
43.5585
 31
0.0
  0
LINE
  8
0
 62
     0
 10
208.908
 20
43.5585
 30
0.0
 11
208.908
 21
42.5581
 31
0.0
  0
LINE
  8
0
 62
     0
 10
208.908
 20
42.5581
 30
0.0
 11
222.907
 21
42.5581
 31
0.0
  0
LINE
  8
0
 62
     0
 10
222.907
 20
42.5581
 30
0.0
 11
222.907
 21
43.5585
 31
0.0
  0
LINE
  8
0
 62
     0
 10
222.907
 20
43.5585
 30
0.0
 11
223.708
 21
43.5585
 31
0.0
  0
LINE
  8
0
 62
     0
 10
223.708
 20
43.5585
 30
0.0
 11
223.708
 21
46.6577
 31
0.0
  0
LINE
  8
0
 62
     0
 10
223.708
 20
46.6577
 30
0.0
 11
222.907
 21
46.6577
 31
0.0
  0
LINE
  8
0
 62
     0
 10
222.907
 20
46.6577
 30
0.0
 11
222.907
 21
52.4577
 31
0.0
  0
LINE
  8
0
 62
     0
 10
222.907
 20
52.4577
 30
0.0
 11
223.708
 21
52.4577
 31
0.0
  0
LINE
  8
0
 62
     0
 10
223.708
 20
52.4577
 30
0.0
 11
223.708
 21
55.5583
 31
0.0
  0
LINE
  8
0
 62
     0
 10
223.708
 20
55.5583
 30
0.0
 11
222.907
 21
55.5583
 31
0.0
  0
LINE
  8
0
 62
     0
 10
222.907
 20
55.5583
 30
0.0
 11
222.907
 21
56.5587
 31
0.0
  0
LINE
  8
0
 62
     0
 10
222.907
 20
56.5587
 30
0.0
 11
208.908
 21
56.5587
 31
0.0
  0
LINE
  8
0
 62
     0
 10
189.858
 20
56.5587
 30
0.0
 11
189.858
 21
55.5583
 31
0.0
  0
LINE
  8
0
 62
     0
 10
189.858
 20
55.5583
 30
0.0
 11
189.057
 21
55.5583
 31
0.0
  0
LINE
  8
0
 62
     0
 10
189.057
 20
55.5583
 30
0.0
 11
189.057
 21
52.4577
 31
0.0
  0
LINE
  8
0
 62
     0
 10
189.057
 20
52.4577
 30
0.0
 11
189.858
 21
52.4577
 31
0.0
  0
LINE
  8
0
 62
     0
 10
189.858
 20
52.4577
 30
0.0
 11
189.858
 21
46.6577
 31
0.0
  0
LINE
  8
0
 62
     0
 10
189.858
 20
46.6577
 30
0.0
 11
189.057
 21
46.6577
 31
0.0
  0
LINE
  8
0
 62
     0
 10
189.057
 20
46.6577
 30
0.0
 11
189.057
 21
43.5585
 31
0.0
  0
LINE
  8
0
 62
     0
 10
189.057
 20
43.5585
 30
0.0
 11
189.858
 21
43.5585
 31
0.0
  0
LINE
  8
0
 62
     0
 10
189.858
 20
43.5585
 30
0.0
 11
189.858
 21
42.5581
 31
0.0
  0
LINE
  8
0
 62
     0
 10
189.858
 20
42.5581
 30
0.0
 11
203.857
 21
42.5581
 31
0.0
  0
LINE
  8
0
 62
     0
 10
203.857
 20
42.5581
 30
0.0
 11
203.857
 21
43.5585
 31
0.0
  0
LINE
  8
0
 62
     0
 10
203.857
 20
43.5585
 30
0.0
 11
204.658
 21
43.5585
 31
0.0
  0
LINE
  8
0
 62
     0
 10
204.658
 20
43.5585
 30
0.0
 11
204.658
 21
46.6577
 31
0.0
  0
LINE
  8
0
 62
     0
 10
204.658
 20
46.6577
 30
0.0
 11
203.857
 21
46.6577
 31
0.0
  0
LINE
  8
0
 62
     0
 10
203.857
 20
46.6577
 30
0.0
 11
203.857
 21
52.4577
 31
0.0
  0
LINE
  8
0
 62
     0
 10
203.857
 20
52.4577
 30
0.0
 11
204.658
 21
52.4577
 31
0.0
  0
LINE
  8
0
 62
     0
 10
204.658
 20
52.4577
 30
0.0
 11
204.658
 21
55.5583
 31
0.0
  0
LINE
  8
0
 62
     0
 10
204.658
 20
55.5583
 30
0.0
 11
203.857
 21
55.5583
 31
0.0
  0
LINE
  8
0
 62
     0
 10
203.857
 20
55.5583
 30
0.0
 11
203.857
 21
56.5587
 31
0.0
  0
LINE
  8
0
 62
     0
 10
203.857
 20
56.5587
 30
0.0
 11
189.858
 21
56.5587
 31
0.0
  0
LINE
  8
0
 62
     0
 10
170.808
 20
56.5587
 30
0.0
 11
170.808
 21
55.5583
 31
0.0
  0
LINE
  8
0
 62
     0
 10
170.808
 20
55.5583
 30
0.0
 11
170.007
 21
55.5583
 31
0.0
  0
LINE
  8
0
 62
     0
 10
170.007
 20
55.5583
 30
0.0
 11
170.007
 21
52.4577
 31
0.0
  0
LINE
  8
0
 62
     0
 10
170.007
 20
52.4577
 30
0.0
 11
170.808
 21
52.4577
 31
0.0
  0
LINE
  8
0
 62
     0
 10
170.808
 20
52.4577
 30
0.0
 11
170.808
 21
46.6577
 31
0.0
  0
LINE
  8
0
 62
     0
 10
170.808
 20
46.6577
 30
0.0
 11
170.007
 21
46.6577
 31
0.0
  0
LINE
  8
0
 62
     0
 10
170.007
 20
46.6577
 30
0.0
 11
170.007
 21
43.5585
 31
0.0
  0
LINE
  8
0
 62
     0
 10
170.007
 20
43.5585
 30
0.0
 11
170.808
 21
43.5585
 31
0.0
  0
LINE
  8
0
 62
     0
 10
170.808
 20
43.5585
 30
0.0
 11
170.808
 21
42.5581
 31
0.0
  0
LINE
  8
0
 62
     0
 10
170.808
 20
42.5581
 30
0.0
 11
184.807
 21
42.5581
 31
0.0
  0
LINE
  8
0
 62
     0
 10
184.807
 20
42.5581
 30
0.0
 11
184.807
 21
43.5585
 31
0.0
  0
LINE
  8
0
 62
     0
 10
184.807
 20
43.5585
 30
0.0
 11
185.608
 21
43.5585
 31
0.0
  0
LINE
  8
0
 62
     0
 10
185.608
 20
43.5585
 30
0.0
 11
185.608
 21
46.6577
 31
0.0
  0
LINE
  8
0
 62
     0
 10
185.608
 20
46.6577
 30
0.0
 11
184.807
 21
46.6577
 31
0.0
  0
LINE
  8
0
 62
     0
 10
184.807
 20
46.6577
 30
0.0
 11
184.807
 21
52.4577
 31
0.0
  0
LINE
  8
0
 62
     0
 10
184.807
 20
52.4577
 30
0.0
 11
185.608
 21
52.4577
 31
0.0
  0
LINE
  8
0
 62
     0
 10
185.608
 20
52.4577
 30
0.0
 11
185.608
 21
55.5583
 31
0.0
  0
LINE
  8
0
 62
     0
 10
185.608
 20
55.5583
 30
0.0
 11
184.807
 21
55.5583
 31
0.0
  0
LINE
  8
0
 62
     0
 10
184.807
 20
55.5583
 30
0.0
 11
184.807
 21
56.5587
 31
0.0
  0
LINE
  8
0
 62
     0
 10
184.807
 20
56.5587
 30
0.0
 11
170.808
 21
56.5587
 31
0.0
  0
LINE
  8
0
 62
     0
 10
151.758
 20
56.5587
 30
0.0
 11
151.758
 21
55.5583
 31
0.0
  0
LINE
  8
0
 62
     0
 10
151.758
 20
55.5583
 30
0.0
 11
150.957
 21
55.5583
 31
0.0
  0
LINE
  8
0
 62
     0
 10
150.957
 20
55.5583
 30
0.0
 11
150.957
 21
52.4577
 31
0.0
  0
LINE
  8
0
 62
     0
 10
150.957
 20
52.4577
 30
0.0
 11
151.758
 21
52.4577
 31
0.0
  0
LINE
  8
0
 62
     0
 10
151.758
 20
52.4577
 30
0.0
 11
151.758
 21
46.6577
 31
0.0
  0
LINE
  8
0
 62
     0
 10
151.758
 20
46.6577
 30
0.0
 11
150.957
 21
46.6577
 31
0.0
  0
LINE
  8
0
 62
     0
 10
150.957
 20
46.6577
 30
0.0
 11
150.957
 21
43.5585
 31
0.0
  0
LINE
  8
0
 62
     0
 10
150.957
 20
43.5585
 30
0.0
 11
151.758
 21
43.5585
 31
0.0
  0
LINE
  8
0
 62
     0
 10
151.758
 20
43.5585
 30
0.0
 11
151.758
 21
42.5581
 31
0.0
  0
LINE
  8
0
 62
     0
 10
151.758
 20
42.5581
 30
0.0
 11
165.757
 21
42.5581
 31
0.0
  0
LINE
  8
0
 62
     0
 10
165.757
 20
42.5581
 30
0.0
 11
165.757
 21
43.5585
 31
0.0
  0
LINE
  8
0
 62
     0
 10
165.757
 20
43.5585
 30
0.0
 11
166.558
 21
43.5585
 31
0.0
  0
LINE
  8
0
 62
     0
 10
166.558
 20
43.5585
 30
0.0
 11
166.558
 21
46.6577
 31
0.0
  0
LINE
  8
0
 62
     0
 10
166.558
 20
46.6577
 30
0.0
 11
165.757
 21
46.6577
 31
0.0
  0
LINE
  8
0
 62
     0
 10
165.757
 20
46.6577
 30
0.0
 11
165.757
 21
52.4577
 31
0.0
  0
LINE
  8
0
 62
     0
 10
165.757
 20
52.4577
 30
0.0
 11
166.558
 21
52.4577
 31
0.0
  0
LINE
  8
0
 62
     0
 10
166.558
 20
52.4577
 30
0.0
 11
166.558
 21
55.5583
 31
0.0
  0
LINE
  8
0
 62
     0
 10
166.558
 20
55.5583
 30
0.0
 11
165.757
 21
55.5583
 31
0.0
  0
LINE
  8
0
 62
     0
 10
165.757
 20
55.5583
 30
0.0
 11
165.757
 21
56.5587
 31
0.0
  0
LINE
  8
0
 62
     0
 10
165.757
 20
56.5587
 30
0.0
 11
151.758
 21
56.5587
 31
0.0
  0
LINE
  8
0
 62
     0
 10
132.708
 20
56.5587
 30
0.0
 11
132.708
 21
55.5583
 31
0.0
  0
LINE
  8
0
 62
     0
 10
132.708
 20
55.5583
 30
0.0
 11
131.907
 21
55.5583
 31
0.0
  0
LINE
  8
0
 62
     0
 10
131.907
 20
55.5583
 30
0.0
 11
131.907
 21
52.4577
 31
0.0
  0
LINE
  8
0
 62
     0
 10
131.907
 20
52.4577
 30
0.0
 11
132.708
 21
52.4577
 31
0.0
  0
LINE
  8
0
 62
     0
 10
132.708
 20
52.4577
 30
0.0
 11
132.708
 21
46.6577
 31
0.0
  0
LINE
  8
0
 62
     0
 10
132.708
 20
46.6577
 30
0.0
 11
131.907
 21
46.6577
 31
0.0
  0
LINE
  8
0
 62
     0
 10
131.907
 20
46.6577
 30
0.0
 11
131.907
 21
43.5585
 31
0.0
  0
LINE
  8
0
 62
     0
 10
131.907
 20
43.5585
 30
0.0
 11
132.708
 21
43.5585
 31
0.0
  0
LINE
  8
0
 62
     0
 10
132.708
 20
43.5585
 30
0.0
 11
132.708
 21
42.5581
 31
0.0
  0
LINE
  8
0
 62
     0
 10
132.708
 20
42.5581
 30
0.0
 11
146.707
 21
42.5581
 31
0.0
  0
LINE
  8
0
 62
     0
 10
146.707
 20
42.5581
 30
0.0
 11
146.707
 21
43.5585
 31
0.0
  0
LINE
  8
0
 62
     0
 10
146.707
 20
43.5585
 30
0.0
 11
147.508
 21
43.5585
 31
0.0
  0
LINE
  8
0
 62
     0
 10
147.508
 20
43.5585
 30
0.0
 11
147.508
 21
46.6577
 31
0.0
  0
LINE
  8
0
 62
     0
 10
147.508
 20
46.6577
 30
0.0
 11
146.707
 21
46.6577
 31
0.0
  0
LINE
  8
0
 62
     0
 10
146.707
 20
46.6577
 30
0.0
 11
146.707
 21
52.4577
 31
0.0
  0
LINE
  8
0
 62
     0
 10
146.707
 20
52.4577
 30
0.0
 11
147.508
 21
52.4577
 31
0.0
  0
LINE
  8
0
 62
     0
 10
147.508
 20
52.4577
 30
0.0
 11
147.508
 21
55.5583
 31
0.0
  0
LINE
  8
0
 62
     0
 10
147.508
 20
55.5583
 30
0.0
 11
146.707
 21
55.5583
 31
0.0
  0
LINE
  8
0
 62
     0
 10
146.707
 20
55.5583
 30
0.0
 11
146.707
 21
56.5587
 31
0.0
  0
LINE
  8
0
 62
     0
 10
146.707
 20
56.5587
 30
0.0
 11
132.708
 21
56.5587
 31
0.0
  0
LINE
  8
0
 62
     0
 10
113.658
 20
56.5587
 30
0.0
 11
113.658
 21
55.5583
 31
0.0
  0
LINE
  8
0
 62
     0
 10
113.658
 20
55.5583
 30
0.0
 11
112.857
 21
55.5583
 31
0.0
  0
LINE
  8
0
 62
     0
 10
112.857
 20
55.5583
 30
0.0
 11
112.857
 21
52.4577
 31
0.0
  0
LINE
  8
0
 62
     0
 10
112.857
 20
52.4577
 30
0.0
 11
113.658
 21
52.4577
 31
0.0
  0
LINE
  8
0
 62
     0
 10
113.658
 20
52.4577
 30
0.0
 11
113.658
 21
46.6577
 31
0.0
  0
LINE
  8
0
 62
     0
 10
113.658
 20
46.6577
 30
0.0
 11
112.857
 21
46.6577
 31
0.0
  0
LINE
  8
0
 62
     0
 10
112.857
 20
46.6577
 30
0.0
 11
112.857
 21
43.5585
 31
0.0
  0
LINE
  8
0
 62
     0
 10
112.857
 20
43.5585
 30
0.0
 11
113.658
 21
43.5585
 31
0.0
  0
LINE
  8
0
 62
     0
 10
113.658
 20
43.5585
 30
0.0
 11
113.658
 21
42.5581
 31
0.0
  0
LINE
  8
0
 62
     0
 10
113.658
 20
42.5581
 30
0.0
 11
127.657
 21
42.5581
 31
0.0
  0
LINE
  8
0
 62
     0
 10
127.657
 20
42.5581
 30
0.0
 11
127.657
 21
43.5585
 31
0.0
  0
LINE
  8
0
 62
     0
 10
127.657
 20
43.5585
 30
0.0
 11
128.458
 21
43.5585
 31
0.0
  0
LINE
  8
0
 62
     0
 10
128.458
 20
43.5585
 30
0.0
 11
128.458
 21
46.6577
 31
0.0
  0
LINE
  8
0
 62
     0
 10
128.458
 20
46.6577
 30
0.0
 11
127.657
 21
46.6577
 31
0.0
  0
LINE
  8
0
 62
     0
 10
127.657
 20
46.6577
 30
0.0
 11
127.657
 21
52.4577
 31
0.0
  0
LINE
  8
0
 62
     0
 10
127.657
 20
52.4577
 30
0.0
 11
128.458
 21
52.4577
 31
0.0
  0
LINE
  8
0
 62
     0
 10
128.458
 20
52.4577
 30
0.0
 11
128.458
 21
55.5583
 31
0.0
  0
LINE
  8
0
 62
     0
 10
128.458
 20
55.5583
 30
0.0
 11
127.657
 21
55.5583
 31
0.0
  0
LINE
  8
0
 62
     0
 10
127.657
 20
55.5583
 30
0.0
 11
127.657
 21
56.5587
 31
0.0
  0
LINE
  8
0
 62
     0
 10
127.657
 20
56.5587
 30
0.0
 11
113.658
 21
56.5587
 31
0.0
  0
LINE
  8
0
 62
     0
 10
94.6079
 20
56.5587
 30
0.0
 11
94.6079
 21
55.5583
 31
0.0
  0
LINE
  8
0
 62
     0
 10
94.6079
 20
55.5583
 30
0.0
 11
93.8071
 21
55.5583
 31
0.0
  0
LINE
  8
0
 62
     0
 10
93.8071
 20
55.5583
 30
0.0
 11
93.8071
 21
52.4577
 31
0.0
  0
LINE
  8
0
 62
     0
 10
93.8071
 20
52.4577
 30
0.0
 11
94.6079
 21
52.4577
 31
0.0
  0
LINE
  8
0
 62
     0
 10
94.6079
 20
52.4577
 30
0.0
 11
94.6079
 21
46.6577
 31
0.0
  0
LINE
  8
0
 62
     0
 10
94.6079
 20
46.6577
 30
0.0
 11
93.8071
 21
46.6577
 31
0.0
  0
LINE
  8
0
 62
     0
 10
93.8071
 20
46.6577
 30
0.0
 11
93.8071
 21
43.5585
 31
0.0
  0
LINE
  8
0
 62
     0
 10
93.8071
 20
43.5585
 30
0.0
 11
94.6079
 21
43.5585
 31
0.0
  0
LINE
  8
0
 62
     0
 10
94.6079
 20
43.5585
 30
0.0
 11
94.6079
 21
42.5581
 31
0.0
  0
LINE
  8
0
 62
     0
 10
94.6079
 20
42.5581
 30
0.0
 11
108.607
 21
42.5581
 31
0.0
  0
LINE
  8
0
 62
     0
 10
108.607
 20
42.5581
 30
0.0
 11
108.607
 21
43.5585
 31
0.0
  0
LINE
  8
0
 62
     0
 10
108.607
 20
43.5585
 30
0.0
 11
109.408
 21
43.5585
 31
0.0
  0
LINE
  8
0
 62
     0
 10
109.408
 20
43.5585
 30
0.0
 11
109.408
 21
46.6577
 31
0.0
  0
LINE
  8
0
 62
     0
 10
109.408
 20
46.6577
 30
0.0
 11
108.607
 21
46.6577
 31
0.0
  0
LINE
  8
0
 62
     0
 10
108.607
 20
46.6577
 30
0.0
 11
108.607
 21
52.4577
 31
0.0
  0
LINE
  8
0
 62
     0
 10
108.607
 20
52.4577
 30
0.0
 11
109.408
 21
52.4577
 31
0.0
  0
LINE
  8
0
 62
     0
 10
109.408
 20
52.4577
 30
0.0
 11
109.408
 21
55.5583
 31
0.0
  0
LINE
  8
0
 62
     0
 10
109.408
 20
55.5583
 30
0.0
 11
108.607
 21
55.5583
 31
0.0
  0
LINE
  8
0
 62
     0
 10
108.607
 20
55.5583
 30
0.0
 11
108.607
 21
56.5587
 31
0.0
  0
LINE
  8
0
 62
     0
 10
108.607
 20
56.5587
 30
0.0
 11
94.6079
 21
56.5587
 31
0.0
  0
LINE
  8
0
 62
     0
 10
73.1767
 20
56.5587
 30
0.0
 11
73.1767
 21
55.5583
 31
0.0
  0
LINE
  8
0
 62
     0
 10
73.1767
 20
55.5583
 30
0.0
 11
72.3759
 21
55.5583
 31
0.0
  0
LINE
  8
0
 62
     0
 10
72.3759
 20
55.5583
 30
0.0
 11
72.3759
 21
52.4577
 31
0.0
  0
LINE
  8
0
 62
     0
 10
72.3759
 20
52.4577
 30
0.0
 11
73.1767
 21
52.4577
 31
0.0
  0
LINE
  8
0
 62
     0
 10
73.1767
 20
52.4577
 30
0.0
 11
73.1767
 21
46.6577
 31
0.0
  0
LINE
  8
0
 62
     0
 10
73.1767
 20
46.6577
 30
0.0
 11
72.3759
 21
46.6577
 31
0.0
  0
LINE
  8
0
 62
     0
 10
72.3759
 20
46.6577
 30
0.0
 11
72.3759
 21
43.5585
 31
0.0
  0
LINE
  8
0
 62
     0
 10
72.3759
 20
43.5585
 30
0.0
 11
73.1767
 21
43.5585
 31
0.0
  0
LINE
  8
0
 62
     0
 10
73.1767
 20
43.5585
 30
0.0
 11
73.1767
 21
42.5581
 31
0.0
  0
LINE
  8
0
 62
     0
 10
73.1767
 20
42.5581
 30
0.0
 11
87.176
 21
42.5581
 31
0.0
  0
LINE
  8
0
 62
     0
 10
87.176
 20
42.5581
 30
0.0
 11
87.176
 21
43.5585
 31
0.0
  0
LINE
  8
0
 62
     0
 10
87.176
 20
43.5585
 30
0.0
 11
87.9768
 21
43.5585
 31
0.0
  0
LINE
  8
0
 62
     0
 10
87.9768
 20
43.5585
 30
0.0
 11
87.9768
 21
46.6577
 31
0.0
  0
LINE
  8
0
 62
     0
 10
87.9768
 20
46.6577
 30
0.0
 11
87.176
 21
46.6577
 31
0.0
  0
LINE
  8
0
 62
     0
 10
87.176
 20
46.6577
 30
0.0
 11
87.176
 21
52.4577
 31
0.0
  0
LINE
  8
0
 62
     0
 10
87.176
 20
52.4577
 30
0.0
 11
87.9768
 21
52.4577
 31
0.0
  0
LINE
  8
0
 62
     0
 10
87.9768
 20
52.4577
 30
0.0
 11
87.9768
 21
55.5583
 31
0.0
  0
LINE
  8
0
 62
     0
 10
87.9768
 20
55.5583
 30
0.0
 11
87.176
 21
55.5583
 31
0.0
  0
LINE
  8
0
 62
     0
 10
87.176
 20
55.5583
 30
0.0
 11
87.176
 21
56.5587
 31
0.0
  0
LINE
  8
0
 62
     0
 10
87.176
 20
56.5587
 30
0.0
 11
73.1767
 21
56.5587
 31
0.0
  0
LINE
  8
0
 62
     0
 10
42.2204
 20
56.5587
 30
0.0
 11
42.2204
 21
55.5583
 31
0.0
  0
LINE
  8
0
 62
     0
 10
42.2204
 20
55.5583
 30
0.0
 11
41.4211
 21
55.5583
 31
0.0
  0
LINE
  8
0
 62
     0
 10
41.4211
 20
55.5583
 30
0.0
 11
41.4211
 21
52.4577
 31
0.0
  0
LINE
  8
0
 62
     0
 10
41.4211
 20
52.4577
 30
0.0
 11
42.2204
 21
52.4577
 31
0.0
  0
LINE
  8
0
 62
     0
 10
42.2204
 20
52.4577
 30
0.0
 11
42.2204
 21
46.6577
 31
0.0
  0
LINE
  8
0
 62
     0
 10
42.2204
 20
46.6577
 30
0.0
 11
41.4211
 21
46.6577
 31
0.0
  0
LINE
  8
0
 62
     0
 10
41.4211
 20
46.6577
 30
0.0
 11
41.4211
 21
43.5585
 31
0.0
  0
LINE
  8
0
 62
     0
 10
41.4211
 20
43.5585
 30
0.0
 11
42.2204
 21
43.5585
 31
0.0
  0
LINE
  8
0
 62
     0
 10
42.2204
 20
43.5585
 30
0.0
 11
42.2204
 21
42.5581
 31
0.0
  0
LINE
  8
0
 62
     0
 10
42.2204
 20
42.5581
 30
0.0
 11
56.2197
 21
42.5581
 31
0.0
  0
LINE
  8
0
 62
     0
 10
56.2197
 20
42.5581
 30
0.0
 11
56.2197
 21
43.5585
 31
0.0
  0
LINE
  8
0
 62
     0
 10
56.2197
 20
43.5585
 30
0.0
 11
57.0205
 21
43.5585
 31
0.0
  0
LINE
  8
0
 62
     0
 10
57.0205
 20
43.5585
 30
0.0
 11
57.0205
 21
46.6577
 31
0.0
  0
LINE
  8
0
 62
     0
 10
57.0205
 20
46.6577
 30
0.0
 11
56.2197
 21
46.6577
 31
0.0
  0
LINE
  8
0
 62
     0
 10
56.2197
 20
46.6577
 30
0.0
 11
56.2197
 21
52.4577
 31
0.0
  0
LINE
  8
0
 62
     0
 10
56.2197
 20
52.4577
 30
0.0
 11
57.0205
 21
52.4577
 31
0.0
  0
LINE
  8
0
 62
     0
 10
57.0205
 20
52.4577
 30
0.0
 11
57.0205
 21
55.5583
 31
0.0
  0
LINE
  8
0
 62
     0
 10
57.0205
 20
55.5583
 30
0.0
 11
56.2197
 21
55.5583
 31
0.0
  0
LINE
  8
0
 62
     0
 10
56.2197
 20
55.5583
 30
0.0
 11
56.2197
 21
56.5587
 31
0.0
  0
LINE
  8
0
 62
     0
 10
56.2197
 20
56.5587
 30
0.0
 11
42.2204
 21
56.5587
 31
0.0
  0
LINE
  8
0
 62
     0
 10
23.1703
 20
56.5587
 30
0.0
 11
23.1703
 21
55.5583
 31
0.0
  0
LINE
  8
0
 62
     0
 10
23.1703
 20
55.5583
 30
0.0
 11
22.3711
 21
55.5583
 31
0.0
  0
LINE
  8
0
 62
     0
 10
22.3711
 20
55.5583
 30
0.0
 11
22.3711
 21
52.4577
 31
0.0
  0
LINE
  8
0
 62
     0
 10
22.3711
 20
52.4577
 30
0.0
 11
23.1703
 21
52.4577
 31
0.0
  0
LINE
  8
0
 62
     0
 10
23.1703
 20
52.4577
 30
0.0
 11
23.1703
 21
46.6577
 31
0.0
  0
LINE
  8
0
 62
     0
 10
23.1703
 20
46.6577
 30
0.0
 11
22.3711
 21
46.6577
 31
0.0
  0
LINE
  8
0
 62
     0
 10
22.3711
 20
46.6577
 30
0.0
 11
22.3711
 21
43.5585
 31
0.0
  0
LINE
  8
0
 62
     0
 10
22.3711
 20
43.5585
 30
0.0
 11
23.1703
 21
43.5585
 31
0.0
  0
LINE
  8
0
 62
     0
 10
23.1703
 20
43.5585
 30
0.0
 11
23.1703
 21
42.5581
 31
0.0
  0
LINE
  8
0
 62
     0
 10
23.1703
 20
42.5581
 30
0.0
 11
37.1697
 21
42.5581
 31
0.0
  0
LINE
  8
0
 62
     0
 10
37.1697
 20
42.5581
 30
0.0
 11
37.1697
 21
43.5585
 31
0.0
  0
LINE
  8
0
 62
     0
 10
37.1697
 20
43.5585
 30
0.0
 11
37.9705
 21
43.5585
 31
0.0
  0
LINE
  8
0
 62
     0
 10
37.9705
 20
43.5585
 30
0.0
 11
37.9705
 21
46.6577
 31
0.0
  0
LINE
  8
0
 62
     0
 10
37.9705
 20
46.6577
 30
0.0
 11
37.1697
 21
46.6577
 31
0.0
  0
LINE
  8
0
 62
     0
 10
37.1697
 20
46.6577
 30
0.0
 11
37.1697
 21
52.4577
 31
0.0
  0
LINE
  8
0
 62
     0
 10
37.1697
 20
52.4577
 30
0.0
 11
37.9705
 21
52.4577
 31
0.0
  0
LINE
  8
0
 62
     0
 10
37.9705
 20
52.4577
 30
0.0
 11
37.9705
 21
55.5583
 31
0.0
  0
LINE
  8
0
 62
     0
 10
37.9705
 20
55.5583
 30
0.0
 11
37.1697
 21
55.5583
 31
0.0
  0
LINE
  8
0
 62
     0
 10
37.1697
 20
55.5583
 30
0.0
 11
37.1697
 21
56.5587
 31
0.0
  0
LINE
  8
0
 62
     0
 10
37.1697
 20
56.5587
 30
0.0
 11
23.1703
 21
56.5587
 31
0.0
  0
LINE
  8
0
 62
     0
 10
4.11896
 20
56.5587
 30
0.0
 11
4.11896
 21
55.5583
 31
0.0
  0
LINE
  8
0
 62
     0
 10
4.11896
 20
55.5583
 30
0.0
 11
3.3197
 21
55.5583
 31
0.0
  0
LINE
  8
0
 62
     0
 10
3.3197
 20
55.5583
 30
0.0
 11
3.3197
 21
52.4577
 31
0.0
  0
LINE
  8
0
 62
     0
 10
3.3197
 20
52.4577
 30
0.0
 11
4.11896
 21
52.4577
 31
0.0
  0
LINE
  8
0
 62
     0
 10
4.11896
 20
52.4577
 30
0.0
 11
4.11896
 21
46.6577
 31
0.0
  0
LINE
  8
0
 62
     0
 10
4.11896
 20
46.6577
 30
0.0
 11
3.3197
 21
46.6577
 31
0.0
  0
LINE
  8
0
 62
     0
 10
3.3197
 20
46.6577
 30
0.0
 11
3.3197
 21
43.5585
 31
0.0
  0
LINE
  8
0
 62
     0
 10
3.3197
 20
43.5585
 30
0.0
 11
4.11896
 21
43.5585
 31
0.0
  0
LINE
  8
0
 62
     0
 10
4.11896
 20
43.5585
 30
0.0
 11
4.11896
 21
42.5581
 31
0.0
  0
LINE
  8
0
 62
     0
 10
4.11896
 20
42.5581
 30
0.0
 11
18.1198
 21
42.5581
 31
0.0
  0
LINE
  8
0
 62
     0
 10
18.1198
 20
42.5581
 30
0.0
 11
18.1198
 21
43.5585
 31
0.0
  0
LINE
  8
0
 62
     0
 10
18.1198
 20
43.5585
 30
0.0
 11
18.9205
 21
43.5585
 31
0.0
  0
LINE
  8
0
 62
     0
 10
18.9205
 20
43.5585
 30
0.0
 11
18.9205
 21
46.6577
 31
0.0
  0
LINE
  8
0
 62
     0
 10
18.9205
 20
46.6577
 30
0.0
 11
18.1198
 21
46.6577
 31
0.0
  0
LINE
  8
0
 62
     0
 10
18.1198
 20
46.6577
 30
0.0
 11
18.1198
 21
52.4577
 31
0.0
  0
LINE
  8
0
 62
     0
 10
18.1198
 20
52.4577
 30
0.0
 11
18.9205
 21
52.4577
 31
0.0
  0
LINE
  8
0
 62
     0
 10
18.9205
 20
52.4577
 30
0.0
 11
18.9205
 21
55.5583
 31
0.0
  0
LINE
  8
0
 62
     0
 10
18.9205
 20
55.5583
 30
0.0
 11
18.1198
 21
55.5583
 31
0.0
  0
LINE
  8
0
 62
     0
 10
18.1198
 20
55.5583
 30
0.0
 11
18.1198
 21
56.5587
 31
0.0
  0
LINE
  8
0
 62
     0
 10
18.1198
 20
56.5587
 30
0.0
 11
4.11896
 21
56.5587
 31
0.0
  0
LINE
  8
0
 62
     0
 10
293.988
 20
75.1829
 30
0.0
 11
293.988
 21
74.3589
 31
0.0
  0
LINE
  8
0
 62
     0
 10
293.988
 20
74.3589
 30
0.0
 11
287.718
 21
74.3589
 31
0.0
  0
LINE
  8
0
 62
     0
 10
287.718
 20
74.3589
 30
0.0
 11
287.718
 21
72.6338
 31
0.0
  0
LINE
  8
0
 62
     0
 10
287.718
 20
72.6338
 30
0.0
 11
286.519
 21
72.6338
 31
0.0
  0
LINE
  8
0
 62
     0
 10
286.519
 20
72.6338
 30
0.0
 11
286.519
 21
69.3332
 31
0.0
  0
LINE
  8
0
 62
     0
 10
286.519
 20
69.3332
 30
0.0
 11
287.718
 21
69.3332
 31
0.0
  0
LINE
  8
0
 62
     0
 10
287.718
 20
69.3332
 30
0.0
 11
287.718
 21
67.6081
 31
0.0
  0
LINE
  8
0
 62
     0
 10
287.718
 20
67.6081
 30
0.0
 11
292.188
 21
67.6081
 31
0.0
  0
LINE
  8
0
 62
     0
 10
292.188
 20
67.6081
 30
0.0
 11
292.188
 21
66.0837
 31
0.0
  0
LINE
  8
0
 62
     0
 10
292.188
 20
66.0837
 30
0.0
 11
291.589
 21
66.0837
 31
0.0
  0
LINE
  8
0
 62
     0
 10
291.589
 20
66.0837
 30
0.0
 11
291.589
 21
66.8831
 31
0.0
  0
LINE
  8
0
 62
     0
 10
291.589
 20
66.8831
 30
0.0
 11
288.488
 21
66.8831
 31
0.0
  0
LINE
  8
0
 62
     0
 10
288.488
 20
66.8831
 30
0.0
 11
288.488
 21
66.0837
 31
0.0
  0
LINE
  8
0
 62
     0
 10
288.488
 20
66.0837
 30
0.0
 11
287.489
 21
66.0837
 31
0.0
  0
LINE
  8
0
 62
     0
 10
287.489
 20
66.0837
 30
0.0
 11
287.489
 21
52.0831
 31
0.0
  0
LINE
  8
0
 62
     0
 10
287.489
 20
52.0831
 30
0.0
 11
288.488
 21
52.0831
 31
0.0
  0
LINE
  8
0
 62
     0
 10
288.488
 20
52.0831
 30
0.0
 11
288.488
 21
51.2837
 31
0.0
  0
LINE
  8
0
 62
     0
 10
288.488
 20
51.2837
 30
0.0
 11
291.589
 21
51.2837
 31
0.0
  0
LINE
  8
0
 62
     0
 10
291.589
 20
51.2837
 30
0.0
 11
291.589
 21
52.0831
 31
0.0
  0
LINE
  8
0
 62
     0
 10
291.589
 20
52.0831
 30
0.0
 11
292.188
 21
52.0831
 31
0.0
  0
LINE
  8
0
 62
     0
 10
292.188
 20
52.0831
 30
0.0
 11
292.188
 21
50.5587
 31
0.0
  0
LINE
  8
0
 62
     0
 10
292.188
 20
50.5587
 30
0.0
 11
287.718
 21
50.5587
 31
0.0
  0
LINE
  8
0
 62
     0
 10
287.718
 20
50.5587
 30
0.0
 11
287.718
 21
48.8322
 31
0.0
  0
LINE
  8
0
 62
     0
 10
287.718
 20
48.8322
 30
0.0
 11
286.519
 21
48.8322
 31
0.0
  0
LINE
  8
0
 62
     0
 10
286.519
 20
48.8322
 30
0.0
 11
286.519
 21
45.533
 31
0.0
  0
LINE
  8
0
 62
     0
 10
286.519
 20
45.533
 30
0.0
 11
287.718
 21
45.533
 31
0.0
  0
LINE
  8
0
 62
     0
 10
287.718
 20
45.533
 30
0.0
 11
287.718
 21
43.8079
 31
0.0
  0
LINE
  8
0
 62
     0
 10
287.718
 20
43.8079
 30
0.0
 11
293.988
 21
43.8079
 31
0.0
  0
LINE
  8
0
 62
     0
 10
293.988
 20
43.8079
 30
0.0
 11
293.988
 21
42.9824
 31
0.0
  0
LINE
  8
0
 62
     0
 10
293.988
 20
42.9824
 30
0.0
 11
296.788
 21
42.9824
 31
0.0
  0
LINE
  8
0
 62
     0
 10
296.788
 20
42.9824
 30
0.0
 11
296.788
 21
43.8079
 31
0.0
  0
LINE
  8
0
 62
     0
 10
296.788
 20
43.8079
 30
0.0
 11
300.018
 21
43.8079
 31
0.0
  0
LINE
  8
0
 62
     0
 10
300.018
 20
43.8079
 30
0.0
 11
300.018
 21
50.5587
 31
0.0
  0
LINE
  8
0
 62
     0
 10
300.018
 20
50.5587
 30
0.0
 11
296.788
 21
50.5587
 31
0.0
  0
LINE
  8
0
 62
     0
 10
296.788
 20
50.5587
 30
0.0
 11
296.788
 21
52.0831
 31
0.0
  0
LINE
  8
0
 62
     0
 10
296.788
 20
52.0831
 30
0.0
 11
297.389
 21
52.0831
 31
0.0
  0
LINE
  8
0
 62
     0
 10
297.389
 20
52.0831
 30
0.0
 11
297.389
 21
51.2837
 31
0.0
  0
LINE
  8
0
 62
     0
 10
297.389
 20
51.2837
 30
0.0
 11
300.488
 21
51.2837
 31
0.0
  0
LINE
  8
0
 62
     0
 10
300.488
 20
51.2837
 30
0.0
 11
300.488
 21
52.0831
 31
0.0
  0
LINE
  8
0
 62
     0
 10
300.488
 20
52.0831
 30
0.0
 11
301.488
 21
52.0831
 31
0.0
  0
LINE
  8
0
 62
     0
 10
301.488
 20
52.0831
 30
0.0
 11
301.488
 21
66.0837
 31
0.0
  0
LINE
  8
0
 62
     0
 10
301.488
 20
66.0837
 30
0.0
 11
300.488
 21
66.0837
 31
0.0
  0
LINE
  8
0
 62
     0
 10
300.488
 20
66.0837
 30
0.0
 11
300.488
 21
66.8831
 31
0.0
  0
LINE
  8
0
 62
     0
 10
300.488
 20
66.8831
 30
0.0
 11
297.389
 21
66.8831
 31
0.0
  0
LINE
  8
0
 62
     0
 10
297.389
 20
66.8831
 30
0.0
 11
297.389
 21
66.0837
 31
0.0
  0
LINE
  8
0
 62
     0
 10
297.389
 20
66.0837
 30
0.0
 11
296.788
 21
66.0837
 31
0.0
  0
LINE
  8
0
 62
     0
 10
296.788
 20
66.0837
 30
0.0
 11
296.788
 21
67.6081
 31
0.0
  0
LINE
  8
0
 62
     0
 10
296.788
 20
67.6081
 30
0.0
 11
300.018
 21
67.6081
 31
0.0
  0
LINE
  8
0
 62
     0
 10
300.018
 20
67.6081
 30
0.0
 11
300.018
 21
74.3589
 31
0.0
  0
LINE
  8
0
 62
     0
 10
300.018
 20
74.3589
 30
0.0
 11
296.788
 21
74.3589
 31
0.0
  0
LINE
  8
0
 62
     0
 10
296.788
 20
74.3589
 30
0.0
 11
296.788
 21
75.1829
 31
0.0
  0
LINE
  8
0
 62
     0
 10
296.788
 20
75.1829
 30
0.0
 11
293.988
 21
75.1829
 31
0.0
  0
LINE
  8
0
 62
     0
 10
261.295
 20
75.6087
 30
0.0
 11
261.295
 21
74.6083
 31
0.0
  0
LINE
  8
0
 62
     0
 10
261.295
 20
74.6083
 30
0.0
 11
260.496
 21
74.6083
 31
0.0
  0
LINE
  8
0
 62
     0
 10
260.496
 20
74.6083
 30
0.0
 11
260.496
 21
71.5077
 31
0.0
  0
LINE
  8
0
 62
     0
 10
260.496
 20
71.5077
 30
0.0
 11
261.295
 21
71.5077
 31
0.0
  0
LINE
  8
0
 62
     0
 10
261.295
 20
71.5077
 30
0.0
 11
261.295
 21
65.7077
 31
0.0
  0
LINE
  8
0
 62
     0
 10
261.295
 20
65.7077
 30
0.0
 11
260.496
 21
65.7077
 31
0.0
  0
LINE
  8
0
 62
     0
 10
260.496
 20
65.7077
 30
0.0
 11
260.496
 21
62.6071
 31
0.0
  0
LINE
  8
0
 62
     0
 10
260.496
 20
62.6071
 30
0.0
 11
261.295
 21
62.6071
 31
0.0
  0
LINE
  8
0
 62
     0
 10
261.295
 20
62.6071
 30
0.0
 11
261.295
 21
61.6081
 31
0.0
  0
LINE
  8
0
 62
     0
 10
261.295
 20
61.6081
 30
0.0
 11
275.295
 21
61.6081
 31
0.0
  0
LINE
  8
0
 62
     0
 10
275.295
 20
61.6081
 30
0.0
 11
275.295
 21
62.6071
 31
0.0
  0
LINE
  8
0
 62
     0
 10
275.295
 20
62.6071
 30
0.0
 11
276.096
 21
62.6071
 31
0.0
  0
LINE
  8
0
 62
     0
 10
276.096
 20
62.6071
 30
0.0
 11
276.096
 21
65.7077
 31
0.0
  0
LINE
  8
0
 62
     0
 10
276.096
 20
65.7077
 30
0.0
 11
275.295
 21
65.7077
 31
0.0
  0
LINE
  8
0
 62
     0
 10
275.295
 20
65.7077
 30
0.0
 11
275.295
 21
71.5077
 31
0.0
  0
LINE
  8
0
 62
     0
 10
275.295
 20
71.5077
 30
0.0
 11
276.096
 21
71.5077
 31
0.0
  0
LINE
  8
0
 62
     0
 10
276.096
 20
71.5077
 30
0.0
 11
276.096
 21
74.6083
 31
0.0
  0
LINE
  8
0
 62
     0
 10
276.096
 20
74.6083
 30
0.0
 11
275.295
 21
74.6083
 31
0.0
  0
LINE
  8
0
 62
     0
 10
275.295
 20
74.6083
 30
0.0
 11
275.295
 21
75.6087
 31
0.0
  0
LINE
  8
0
 62
     0
 10
275.295
 20
75.6087
 30
0.0
 11
261.295
 21
75.6087
 31
0.0
  0
LINE
  8
0
 62
     0
 10
242.245
 20
75.6087
 30
0.0
 11
242.245
 21
74.6083
 31
0.0
  0
LINE
  8
0
 62
     0
 10
242.245
 20
74.6083
 30
0.0
 11
241.446
 21
74.6083
 31
0.0
  0
LINE
  8
0
 62
     0
 10
241.446
 20
74.6083
 30
0.0
 11
241.446
 21
71.5077
 31
0.0
  0
LINE
  8
0
 62
     0
 10
241.446
 20
71.5077
 30
0.0
 11
242.245
 21
71.5077
 31
0.0
  0
LINE
  8
0
 62
     0
 10
242.245
 20
71.5077
 30
0.0
 11
242.245
 21
65.7077
 31
0.0
  0
LINE
  8
0
 62
     0
 10
242.245
 20
65.7077
 30
0.0
 11
241.446
 21
65.7077
 31
0.0
  0
LINE
  8
0
 62
     0
 10
241.446
 20
65.7077
 30
0.0
 11
241.446
 21
62.6071
 31
0.0
  0
LINE
  8
0
 62
     0
 10
241.446
 20
62.6071
 30
0.0
 11
242.245
 21
62.6071
 31
0.0
  0
LINE
  8
0
 62
     0
 10
242.245
 20
62.6071
 30
0.0
 11
242.245
 21
61.6081
 31
0.0
  0
LINE
  8
0
 62
     0
 10
242.245
 20
61.6081
 30
0.0
 11
256.245
 21
61.6081
 31
0.0
  0
LINE
  8
0
 62
     0
 10
256.245
 20
61.6081
 30
0.0
 11
256.245
 21
62.6071
 31
0.0
  0
LINE
  8
0
 62
     0
 10
256.245
 20
62.6071
 30
0.0
 11
257.046
 21
62.6071
 31
0.0
  0
LINE
  8
0
 62
     0
 10
257.046
 20
62.6071
 30
0.0
 11
257.046
 21
65.7077
 31
0.0
  0
LINE
  8
0
 62
     0
 10
257.046
 20
65.7077
 30
0.0
 11
256.245
 21
65.7077
 31
0.0
  0
LINE
  8
0
 62
     0
 10
256.245
 20
65.7077
 30
0.0
 11
256.245
 21
71.5077
 31
0.0
  0
LINE
  8
0
 62
     0
 10
256.245
 20
71.5077
 30
0.0
 11
257.046
 21
71.5077
 31
0.0
  0
LINE
  8
0
 62
     0
 10
257.046
 20
71.5077
 30
0.0
 11
257.046
 21
74.6083
 31
0.0
  0
LINE
  8
0
 62
     0
 10
257.046
 20
74.6083
 30
0.0
 11
256.245
 21
74.6083
 31
0.0
  0
LINE
  8
0
 62
     0
 10
256.245
 20
74.6083
 30
0.0
 11
256.245
 21
75.6087
 31
0.0
  0
LINE
  8
0
 62
     0
 10
256.245
 20
75.6087
 30
0.0
 11
242.245
 21
75.6087
 31
0.0
  0
LINE
  8
0
 62
     0
 10
223.195
 20
75.6087
 30
0.0
 11
223.195
 21
74.6083
 31
0.0
  0
LINE
  8
0
 62
     0
 10
223.195
 20
74.6083
 30
0.0
 11
222.396
 21
74.6083
 31
0.0
  0
LINE
  8
0
 62
     0
 10
222.396
 20
74.6083
 30
0.0
 11
222.396
 21
71.5077
 31
0.0
  0
LINE
  8
0
 62
     0
 10
222.396
 20
71.5077
 30
0.0
 11
223.195
 21
71.5077
 31
0.0
  0
LINE
  8
0
 62
     0
 10
223.195
 20
71.5077
 30
0.0
 11
223.195
 21
65.7077
 31
0.0
  0
LINE
  8
0
 62
     0
 10
223.195
 20
65.7077
 30
0.0
 11
222.396
 21
65.7077
 31
0.0
  0
LINE
  8
0
 62
     0
 10
222.396
 20
65.7077
 30
0.0
 11
222.396
 21
62.6071
 31
0.0
  0
LINE
  8
0
 62
     0
 10
222.396
 20
62.6071
 30
0.0
 11
223.195
 21
62.6071
 31
0.0
  0
LINE
  8
0
 62
     0
 10
223.195
 20
62.6071
 30
0.0
 11
223.195
 21
61.6081
 31
0.0
  0
LINE
  8
0
 62
     0
 10
223.195
 20
61.6081
 30
0.0
 11
237.195
 21
61.6081
 31
0.0
  0
LINE
  8
0
 62
     0
 10
237.195
 20
61.6081
 30
0.0
 11
237.195
 21
62.6071
 31
0.0
  0
LINE
  8
0
 62
     0
 10
237.195
 20
62.6071
 30
0.0
 11
237.996
 21
62.6071
 31
0.0
  0
LINE
  8
0
 62
     0
 10
237.996
 20
62.6071
 30
0.0
 11
237.996
 21
65.7077
 31
0.0
  0
LINE
  8
0
 62
     0
 10
237.996
 20
65.7077
 30
0.0
 11
237.195
 21
65.7077
 31
0.0
  0
LINE
  8
0
 62
     0
 10
237.195
 20
65.7077
 30
0.0
 11
237.195
 21
71.5077
 31
0.0
  0
LINE
  8
0
 62
     0
 10
237.195
 20
71.5077
 30
0.0
 11
237.996
 21
71.5077
 31
0.0
  0
LINE
  8
0
 62
     0
 10
237.996
 20
71.5077
 30
0.0
 11
237.996
 21
74.6083
 31
0.0
  0
LINE
  8
0
 62
     0
 10
237.996
 20
74.6083
 30
0.0
 11
237.195
 21
74.6083
 31
0.0
  0
LINE
  8
0
 62
     0
 10
237.195
 20
74.6083
 30
0.0
 11
237.195
 21
75.6087
 31
0.0
  0
LINE
  8
0
 62
     0
 10
237.195
 20
75.6087
 30
0.0
 11
223.195
 21
75.6087
 31
0.0
  0
LINE
  8
0
 62
     0
 10
204.145
 20
75.6087
 30
0.0
 11
204.145
 21
74.6083
 31
0.0
  0
LINE
  8
0
 62
     0
 10
204.145
 20
74.6083
 30
0.0
 11
203.346
 21
74.6083
 31
0.0
  0
LINE
  8
0
 62
     0
 10
203.346
 20
74.6083
 30
0.0
 11
203.346
 21
71.5077
 31
0.0
  0
LINE
  8
0
 62
     0
 10
203.346
 20
71.5077
 30
0.0
 11
204.145
 21
71.5077
 31
0.0
  0
LINE
  8
0
 62
     0
 10
204.145
 20
71.5077
 30
0.0
 11
204.145
 21
65.7077
 31
0.0
  0
LINE
  8
0
 62
     0
 10
204.145
 20
65.7077
 30
0.0
 11
203.346
 21
65.7077
 31
0.0
  0
LINE
  8
0
 62
     0
 10
203.346
 20
65.7077
 30
0.0
 11
203.346
 21
62.6071
 31
0.0
  0
LINE
  8
0
 62
     0
 10
203.346
 20
62.6071
 30
0.0
 11
204.145
 21
62.6071
 31
0.0
  0
LINE
  8
0
 62
     0
 10
204.145
 20
62.6071
 30
0.0
 11
204.145
 21
61.6081
 31
0.0
  0
LINE
  8
0
 62
     0
 10
204.145
 20
61.6081
 30
0.0
 11
218.145
 21
61.6081
 31
0.0
  0
LINE
  8
0
 62
     0
 10
218.145
 20
61.6081
 30
0.0
 11
218.145
 21
62.6071
 31
0.0
  0
LINE
  8
0
 62
     0
 10
218.145
 20
62.6071
 30
0.0
 11
218.946
 21
62.6071
 31
0.0
  0
LINE
  8
0
 62
     0
 10
218.946
 20
62.6071
 30
0.0
 11
218.946
 21
65.7077
 31
0.0
  0
LINE
  8
0
 62
     0
 10
218.946
 20
65.7077
 30
0.0
 11
218.145
 21
65.7077
 31
0.0
  0
LINE
  8
0
 62
     0
 10
218.145
 20
65.7077
 30
0.0
 11
218.145
 21
71.5077
 31
0.0
  0
LINE
  8
0
 62
     0
 10
218.145
 20
71.5077
 30
0.0
 11
218.946
 21
71.5077
 31
0.0
  0
LINE
  8
0
 62
     0
 10
218.946
 20
71.5077
 30
0.0
 11
218.946
 21
74.6083
 31
0.0
  0
LINE
  8
0
 62
     0
 10
218.946
 20
74.6083
 30
0.0
 11
218.145
 21
74.6083
 31
0.0
  0
LINE
  8
0
 62
     0
 10
218.145
 20
74.6083
 30
0.0
 11
218.145
 21
75.6087
 31
0.0
  0
LINE
  8
0
 62
     0
 10
218.145
 20
75.6087
 30
0.0
 11
204.145
 21
75.6087
 31
0.0
  0
LINE
  8
0
 62
     0
 10
185.095
 20
75.6087
 30
0.0
 11
185.095
 21
74.6083
 31
0.0
  0
LINE
  8
0
 62
     0
 10
185.095
 20
74.6083
 30
0.0
 11
184.296
 21
74.6083
 31
0.0
  0
LINE
  8
0
 62
     0
 10
184.296
 20
74.6083
 30
0.0
 11
184.296
 21
71.5077
 31
0.0
  0
LINE
  8
0
 62
     0
 10
184.296
 20
71.5077
 30
0.0
 11
185.095
 21
71.5077
 31
0.0
  0
LINE
  8
0
 62
     0
 10
185.095
 20
71.5077
 30
0.0
 11
185.095
 21
65.7077
 31
0.0
  0
LINE
  8
0
 62
     0
 10
185.095
 20
65.7077
 30
0.0
 11
184.296
 21
65.7077
 31
0.0
  0
LINE
  8
0
 62
     0
 10
184.296
 20
65.7077
 30
0.0
 11
184.296
 21
62.6071
 31
0.0
  0
LINE
  8
0
 62
     0
 10
184.296
 20
62.6071
 30
0.0
 11
185.095
 21
62.6071
 31
0.0
  0
LINE
  8
0
 62
     0
 10
185.095
 20
62.6071
 30
0.0
 11
185.095
 21
61.6081
 31
0.0
  0
LINE
  8
0
 62
     0
 10
185.095
 20
61.6081
 30
0.0
 11
199.095
 21
61.6081
 31
0.0
  0
LINE
  8
0
 62
     0
 10
199.095
 20
61.6081
 30
0.0
 11
199.095
 21
62.6071
 31
0.0
  0
LINE
  8
0
 62
     0
 10
199.095
 20
62.6071
 30
0.0
 11
199.896
 21
62.6071
 31
0.0
  0
LINE
  8
0
 62
     0
 10
199.896
 20
62.6071
 30
0.0
 11
199.896
 21
65.7077
 31
0.0
  0
LINE
  8
0
 62
     0
 10
199.896
 20
65.7077
 30
0.0
 11
199.095
 21
65.7077
 31
0.0
  0
LINE
  8
0
 62
     0
 10
199.095
 20
65.7077
 30
0.0
 11
199.095
 21
71.5077
 31
0.0
  0
LINE
  8
0
 62
     0
 10
199.095
 20
71.5077
 30
0.0
 11
199.896
 21
71.5077
 31
0.0
  0
LINE
  8
0
 62
     0
 10
199.896
 20
71.5077
 30
0.0
 11
199.896
 21
74.6083
 31
0.0
  0
LINE
  8
0
 62
     0
 10
199.896
 20
74.6083
 30
0.0
 11
199.095
 21
74.6083
 31
0.0
  0
LINE
  8
0
 62
     0
 10
199.095
 20
74.6083
 30
0.0
 11
199.095
 21
75.6087
 31
0.0
  0
LINE
  8
0
 62
     0
 10
199.095
 20
75.6087
 30
0.0
 11
185.095
 21
75.6087
 31
0.0
  0
LINE
  8
0
 62
     0
 10
166.045
 20
75.6087
 30
0.0
 11
166.045
 21
74.6083
 31
0.0
  0
LINE
  8
0
 62
     0
 10
166.045
 20
74.6083
 30
0.0
 11
165.246
 21
74.6083
 31
0.0
  0
LINE
  8
0
 62
     0
 10
165.246
 20
74.6083
 30
0.0
 11
165.246
 21
71.5077
 31
0.0
  0
LINE
  8
0
 62
     0
 10
165.246
 20
71.5077
 30
0.0
 11
166.045
 21
71.5077
 31
0.0
  0
LINE
  8
0
 62
     0
 10
166.045
 20
71.5077
 30
0.0
 11
166.045
 21
65.7077
 31
0.0
  0
LINE
  8
0
 62
     0
 10
166.045
 20
65.7077
 30
0.0
 11
165.246
 21
65.7077
 31
0.0
  0
LINE
  8
0
 62
     0
 10
165.246
 20
65.7077
 30
0.0
 11
165.246
 21
62.6071
 31
0.0
  0
LINE
  8
0
 62
     0
 10
165.246
 20
62.6071
 30
0.0
 11
166.045
 21
62.6071
 31
0.0
  0
LINE
  8
0
 62
     0
 10
166.045
 20
62.6071
 30
0.0
 11
166.045
 21
61.6081
 31
0.0
  0
LINE
  8
0
 62
     0
 10
166.045
 20
61.6081
 30
0.0
 11
180.045
 21
61.6081
 31
0.0
  0
LINE
  8
0
 62
     0
 10
180.045
 20
61.6081
 30
0.0
 11
180.045
 21
62.6071
 31
0.0
  0
LINE
  8
0
 62
     0
 10
180.045
 20
62.6071
 30
0.0
 11
180.846
 21
62.6071
 31
0.0
  0
LINE
  8
0
 62
     0
 10
180.846
 20
62.6071
 30
0.0
 11
180.846
 21
65.7077
 31
0.0
  0
LINE
  8
0
 62
     0
 10
180.846
 20
65.7077
 30
0.0
 11
180.045
 21
65.7077
 31
0.0
  0
LINE
  8
0
 62
     0
 10
180.045
 20
65.7077
 30
0.0
 11
180.045
 21
71.5077
 31
0.0
  0
LINE
  8
0
 62
     0
 10
180.045
 20
71.5077
 30
0.0
 11
180.846
 21
71.5077
 31
0.0
  0
LINE
  8
0
 62
     0
 10
180.846
 20
71.5077
 30
0.0
 11
180.846
 21
74.6083
 31
0.0
  0
LINE
  8
0
 62
     0
 10
180.846
 20
74.6083
 30
0.0
 11
180.045
 21
74.6083
 31
0.0
  0
LINE
  8
0
 62
     0
 10
180.045
 20
74.6083
 30
0.0
 11
180.045
 21
75.6087
 31
0.0
  0
LINE
  8
0
 62
     0
 10
180.045
 20
75.6087
 30
0.0
 11
166.045
 21
75.6087
 31
0.0
  0
LINE
  8
0
 62
     0
 10
146.995
 20
75.6087
 30
0.0
 11
146.995
 21
74.6083
 31
0.0
  0
LINE
  8
0
 62
     0
 10
146.995
 20
74.6083
 30
0.0
 11
146.196
 21
74.6083
 31
0.0
  0
LINE
  8
0
 62
     0
 10
146.196
 20
74.6083
 30
0.0
 11
146.196
 21
71.5077
 31
0.0
  0
LINE
  8
0
 62
     0
 10
146.196
 20
71.5077
 30
0.0
 11
146.995
 21
71.5077
 31
0.0
  0
LINE
  8
0
 62
     0
 10
146.995
 20
71.5077
 30
0.0
 11
146.995
 21
65.7077
 31
0.0
  0
LINE
  8
0
 62
     0
 10
146.995
 20
65.7077
 30
0.0
 11
146.196
 21
65.7077
 31
0.0
  0
LINE
  8
0
 62
     0
 10
146.196
 20
65.7077
 30
0.0
 11
146.196
 21
62.6071
 31
0.0
  0
LINE
  8
0
 62
     0
 10
146.196
 20
62.6071
 30
0.0
 11
146.995
 21
62.6071
 31
0.0
  0
LINE
  8
0
 62
     0
 10
146.995
 20
62.6071
 30
0.0
 11
146.995
 21
61.6081
 31
0.0
  0
LINE
  8
0
 62
     0
 10
146.995
 20
61.6081
 30
0.0
 11
160.995
 21
61.6081
 31
0.0
  0
LINE
  8
0
 62
     0
 10
160.995
 20
61.6081
 30
0.0
 11
160.995
 21
62.6071
 31
0.0
  0
LINE
  8
0
 62
     0
 10
160.995
 20
62.6071
 30
0.0
 11
161.796
 21
62.6071
 31
0.0
  0
LINE
  8
0
 62
     0
 10
161.796
 20
62.6071
 30
0.0
 11
161.796
 21
65.7077
 31
0.0
  0
LINE
  8
0
 62
     0
 10
161.796
 20
65.7077
 30
0.0
 11
160.995
 21
65.7077
 31
0.0
  0
LINE
  8
0
 62
     0
 10
160.995
 20
65.7077
 30
0.0
 11
160.995
 21
71.5077
 31
0.0
  0
LINE
  8
0
 62
     0
 10
160.995
 20
71.5077
 30
0.0
 11
161.796
 21
71.5077
 31
0.0
  0
LINE
  8
0
 62
     0
 10
161.796
 20
71.5077
 30
0.0
 11
161.796
 21
74.6083
 31
0.0
  0
LINE
  8
0
 62
     0
 10
161.796
 20
74.6083
 30
0.0
 11
160.995
 21
74.6083
 31
0.0
  0
LINE
  8
0
 62
     0
 10
160.995
 20
74.6083
 30
0.0
 11
160.995
 21
75.6087
 31
0.0
  0
LINE
  8
0
 62
     0
 10
160.995
 20
75.6087
 30
0.0
 11
146.995
 21
75.6087
 31
0.0
  0
LINE
  8
0
 62
     0
 10
127.945
 20
75.6087
 30
0.0
 11
127.945
 21
74.6083
 31
0.0
  0
LINE
  8
0
 62
     0
 10
127.945
 20
74.6083
 30
0.0
 11
127.145
 21
74.6083
 31
0.0
  0
LINE
  8
0
 62
     0
 10
127.145
 20
74.6083
 30
0.0
 11
127.145
 21
71.5077
 31
0.0
  0
LINE
  8
0
 62
     0
 10
127.145
 20
71.5077
 30
0.0
 11
127.945
 21
71.5077
 31
0.0
  0
LINE
  8
0
 62
     0
 10
127.945
 20
71.5077
 30
0.0
 11
127.945
 21
65.7077
 31
0.0
  0
LINE
  8
0
 62
     0
 10
127.945
 20
65.7077
 30
0.0
 11
127.145
 21
65.7077
 31
0.0
  0
LINE
  8
0
 62
     0
 10
127.145
 20
65.7077
 30
0.0
 11
127.145
 21
62.6071
 31
0.0
  0
LINE
  8
0
 62
     0
 10
127.145
 20
62.6071
 30
0.0
 11
127.945
 21
62.6071
 31
0.0
  0
LINE
  8
0
 62
     0
 10
127.945
 20
62.6071
 30
0.0
 11
127.945
 21
61.6081
 31
0.0
  0
LINE
  8
0
 62
     0
 10
127.945
 20
61.6081
 30
0.0
 11
141.945
 21
61.6081
 31
0.0
  0
LINE
  8
0
 62
     0
 10
141.945
 20
61.6081
 30
0.0
 11
141.945
 21
62.6071
 31
0.0
  0
LINE
  8
0
 62
     0
 10
141.945
 20
62.6071
 30
0.0
 11
142.746
 21
62.6071
 31
0.0
  0
LINE
  8
0
 62
     0
 10
142.746
 20
62.6071
 30
0.0
 11
142.746
 21
65.7077
 31
0.0
  0
LINE
  8
0
 62
     0
 10
142.746
 20
65.7077
 30
0.0
 11
141.945
 21
65.7077
 31
0.0
  0
LINE
  8
0
 62
     0
 10
141.945
 20
65.7077
 30
0.0
 11
141.945
 21
71.5077
 31
0.0
  0
LINE
  8
0
 62
     0
 10
141.945
 20
71.5077
 30
0.0
 11
142.746
 21
71.5077
 31
0.0
  0
LINE
  8
0
 62
     0
 10
142.746
 20
71.5077
 30
0.0
 11
142.746
 21
74.6083
 31
0.0
  0
LINE
  8
0
 62
     0
 10
142.746
 20
74.6083
 30
0.0
 11
141.945
 21
74.6083
 31
0.0
  0
LINE
  8
0
 62
     0
 10
141.945
 20
74.6083
 30
0.0
 11
141.945
 21
75.6087
 31
0.0
  0
LINE
  8
0
 62
     0
 10
141.945
 20
75.6087
 30
0.0
 11
127.945
 21
75.6087
 31
0.0
  0
LINE
  8
0
 62
     0
 10
108.895
 20
75.6087
 30
0.0
 11
108.895
 21
74.6083
 31
0.0
  0
LINE
  8
0
 62
     0
 10
108.895
 20
74.6083
 30
0.0
 11
108.096
 21
74.6083
 31
0.0
  0
LINE
  8
0
 62
     0
 10
108.096
 20
74.6083
 30
0.0
 11
108.096
 21
71.5077
 31
0.0
  0
LINE
  8
0
 62
     0
 10
108.096
 20
71.5077
 30
0.0
 11
108.895
 21
71.5077
 31
0.0
  0
LINE
  8
0
 62
     0
 10
108.895
 20
71.5077
 30
0.0
 11
108.895
 21
65.7077
 31
0.0
  0
LINE
  8
0
 62
     0
 10
108.895
 20
65.7077
 30
0.0
 11
108.096
 21
65.7077
 31
0.0
  0
LINE
  8
0
 62
     0
 10
108.096
 20
65.7077
 30
0.0
 11
108.096
 21
62.6071
 31
0.0
  0
LINE
  8
0
 62
     0
 10
108.096
 20
62.6071
 30
0.0
 11
108.895
 21
62.6071
 31
0.0
  0
LINE
  8
0
 62
     0
 10
108.895
 20
62.6071
 30
0.0
 11
108.895
 21
61.6081
 31
0.0
  0
LINE
  8
0
 62
     0
 10
108.895
 20
61.6081
 30
0.0
 11
122.895
 21
61.6081
 31
0.0
  0
LINE
  8
0
 62
     0
 10
122.895
 20
61.6081
 30
0.0
 11
122.895
 21
62.6071
 31
0.0
  0
LINE
  8
0
 62
     0
 10
122.895
 20
62.6071
 30
0.0
 11
123.696
 21
62.6071
 31
0.0
  0
LINE
  8
0
 62
     0
 10
123.696
 20
62.6071
 30
0.0
 11
123.696
 21
65.7077
 31
0.0
  0
LINE
  8
0
 62
     0
 10
123.696
 20
65.7077
 30
0.0
 11
122.895
 21
65.7077
 31
0.0
  0
LINE
  8
0
 62
     0
 10
122.895
 20
65.7077
 30
0.0
 11
122.895
 21
71.5077
 31
0.0
  0
LINE
  8
0
 62
     0
 10
122.895
 20
71.5077
 30
0.0
 11
123.696
 21
71.5077
 31
0.0
  0
LINE
  8
0
 62
     0
 10
123.696
 20
71.5077
 30
0.0
 11
123.696
 21
74.6083
 31
0.0
  0
LINE
  8
0
 62
     0
 10
123.696
 20
74.6083
 30
0.0
 11
122.895
 21
74.6083
 31
0.0
  0
LINE
  8
0
 62
     0
 10
122.895
 20
74.6083
 30
0.0
 11
122.895
 21
75.6087
 31
0.0
  0
LINE
  8
0
 62
     0
 10
122.895
 20
75.6087
 30
0.0
 11
108.895
 21
75.6087
 31
0.0
  0
LINE
  8
0
 62
     0
 10
89.8454
 20
75.6087
 30
0.0
 11
89.8454
 21
74.6083
 31
0.0
  0
LINE
  8
0
 62
     0
 10
89.8454
 20
74.6083
 30
0.0
 11
89.0461
 21
74.6083
 31
0.0
  0
LINE
  8
0
 62
     0
 10
89.0461
 20
74.6083
 30
0.0
 11
89.0461
 21
71.5077
 31
0.0
  0
LINE
  8
0
 62
     0
 10
89.0461
 20
71.5077
 30
0.0
 11
89.8454
 21
71.5077
 31
0.0
  0
LINE
  8
0
 62
     0
 10
89.8454
 20
71.5077
 30
0.0
 11
89.8454
 21
65.7077
 31
0.0
  0
LINE
  8
0
 62
     0
 10
89.8454
 20
65.7077
 30
0.0
 11
89.0461
 21
65.7077
 31
0.0
  0
LINE
  8
0
 62
     0
 10
89.0461
 20
65.7077
 30
0.0
 11
89.0461
 21
62.6071
 31
0.0
  0
LINE
  8
0
 62
     0
 10
89.0461
 20
62.6071
 30
0.0
 11
89.8454
 21
62.6071
 31
0.0
  0
LINE
  8
0
 62
     0
 10
89.8454
 20
62.6071
 30
0.0
 11
89.8454
 21
61.6081
 31
0.0
  0
LINE
  8
0
 62
     0
 10
89.8454
 20
61.6081
 30
0.0
 11
103.845
 21
61.6081
 31
0.0
  0
LINE
  8
0
 62
     0
 10
103.845
 20
61.6081
 30
0.0
 11
103.845
 21
62.6071
 31
0.0
  0
LINE
  8
0
 62
     0
 10
103.845
 20
62.6071
 30
0.0
 11
104.646
 21
62.6071
 31
0.0
  0
LINE
  8
0
 62
     0
 10
104.646
 20
62.6071
 30
0.0
 11
104.646
 21
65.7077
 31
0.0
  0
LINE
  8
0
 62
     0
 10
104.646
 20
65.7077
 30
0.0
 11
103.845
 21
65.7077
 31
0.0
  0
LINE
  8
0
 62
     0
 10
103.845
 20
65.7077
 30
0.0
 11
103.845
 21
71.5077
 31
0.0
  0
LINE
  8
0
 62
     0
 10
103.845
 20
71.5077
 30
0.0
 11
104.646
 21
71.5077
 31
0.0
  0
LINE
  8
0
 62
     0
 10
104.646
 20
71.5077
 30
0.0
 11
104.646
 21
74.6083
 31
0.0
  0
LINE
  8
0
 62
     0
 10
104.646
 20
74.6083
 30
0.0
 11
103.845
 21
74.6083
 31
0.0
  0
LINE
  8
0
 62
     0
 10
103.845
 20
74.6083
 30
0.0
 11
103.845
 21
75.6087
 31
0.0
  0
LINE
  8
0
 62
     0
 10
103.845
 20
75.6087
 30
0.0
 11
89.8454
 21
75.6087
 31
0.0
  0
LINE
  8
0
 62
     0
 10
70.7954
 20
75.6087
 30
0.0
 11
70.7954
 21
74.6083
 31
0.0
  0
LINE
  8
0
 62
     0
 10
70.7954
 20
74.6083
 30
0.0
 11
69.9961
 21
74.6083
 31
0.0
  0
LINE
  8
0
 62
     0
 10
69.9961
 20
74.6083
 30
0.0
 11
69.9961
 21
71.5077
 31
0.0
  0
LINE
  8
0
 62
     0
 10
69.9961
 20
71.5077
 30
0.0
 11
70.7954
 21
71.5077
 31
0.0
  0
LINE
  8
0
 62
     0
 10
70.7954
 20
71.5077
 30
0.0
 11
70.7954
 21
65.7077
 31
0.0
  0
LINE
  8
0
 62
     0
 10
70.7954
 20
65.7077
 30
0.0
 11
69.9961
 21
65.7077
 31
0.0
  0
LINE
  8
0
 62
     0
 10
69.9961
 20
65.7077
 30
0.0
 11
69.9961
 21
62.6071
 31
0.0
  0
LINE
  8
0
 62
     0
 10
69.9961
 20
62.6071
 30
0.0
 11
70.7954
 21
62.6071
 31
0.0
  0
LINE
  8
0
 62
     0
 10
70.7954
 20
62.6071
 30
0.0
 11
70.7954
 21
61.6081
 31
0.0
  0
LINE
  8
0
 62
     0
 10
70.7954
 20
61.6081
 30
0.0
 11
84.7947
 21
61.6081
 31
0.0
  0
LINE
  8
0
 62
     0
 10
84.7947
 20
61.6081
 30
0.0
 11
84.7947
 21
62.6071
 31
0.0
  0
LINE
  8
0
 62
     0
 10
84.7947
 20
62.6071
 30
0.0
 11
85.5955
 21
62.6071
 31
0.0
  0
LINE
  8
0
 62
     0
 10
85.5955
 20
62.6071
 30
0.0
 11
85.5955
 21
65.7077
 31
0.0
  0
LINE
  8
0
 62
     0
 10
85.5955
 20
65.7077
 30
0.0
 11
84.7947
 21
65.7077
 31
0.0
  0
LINE
  8
0
 62
     0
 10
84.7947
 20
65.7077
 30
0.0
 11
84.7947
 21
71.5077
 31
0.0
  0
LINE
  8
0
 62
     0
 10
84.7947
 20
71.5077
 30
0.0
 11
85.5955
 21
71.5077
 31
0.0
  0
LINE
  8
0
 62
     0
 10
85.5955
 20
71.5077
 30
0.0
 11
85.5955
 21
74.6083
 31
0.0
  0
LINE
  8
0
 62
     0
 10
85.5955
 20
74.6083
 30
0.0
 11
84.7947
 21
74.6083
 31
0.0
  0
LINE
  8
0
 62
     0
 10
84.7947
 20
74.6083
 30
0.0
 11
84.7947
 21
75.6087
 31
0.0
  0
LINE
  8
0
 62
     0
 10
84.7947
 20
75.6087
 30
0.0
 11
70.7954
 21
75.6087
 31
0.0
  0
LINE
  8
0
 62
     0
 10
42.2204
 20
75.6087
 30
0.0
 11
42.2204
 21
74.6083
 31
0.0
  0
LINE
  8
0
 62
     0
 10
42.2204
 20
74.6083
 30
0.0
 11
41.4211
 21
74.6083
 31
0.0
  0
LINE
  8
0
 62
     0
 10
41.4211
 20
74.6083
 30
0.0
 11
41.4211
 21
71.5077
 31
0.0
  0
LINE
  8
0
 62
     0
 10
41.4211
 20
71.5077
 30
0.0
 11
42.2204
 21
71.5077
 31
0.0
  0
LINE
  8
0
 62
     0
 10
42.2204
 20
71.5077
 30
0.0
 11
42.2204
 21
65.7077
 31
0.0
  0
LINE
  8
0
 62
     0
 10
42.2204
 20
65.7077
 30
0.0
 11
41.4211
 21
65.7077
 31
0.0
  0
LINE
  8
0
 62
     0
 10
41.4211
 20
65.7077
 30
0.0
 11
41.4211
 21
62.6071
 31
0.0
  0
LINE
  8
0
 62
     0
 10
41.4211
 20
62.6071
 30
0.0
 11
42.2204
 21
62.6071
 31
0.0
  0
LINE
  8
0
 62
     0
 10
42.2204
 20
62.6071
 30
0.0
 11
42.2204
 21
61.6081
 31
0.0
  0
LINE
  8
0
 62
     0
 10
42.2204
 20
61.6081
 30
0.0
 11
56.2197
 21
61.6081
 31
0.0
  0
LINE
  8
0
 62
     0
 10
56.2197
 20
61.6081
 30
0.0
 11
56.2197
 21
62.6071
 31
0.0
  0
LINE
  8
0
 62
     0
 10
56.2197
 20
62.6071
 30
0.0
 11
57.0205
 21
62.6071
 31
0.0
  0
LINE
  8
0
 62
     0
 10
57.0205
 20
62.6071
 30
0.0
 11
57.0205
 21
65.7077
 31
0.0
  0
LINE
  8
0
 62
     0
 10
57.0205
 20
65.7077
 30
0.0
 11
56.2197
 21
65.7077
 31
0.0
  0
LINE
  8
0
 62
     0
 10
56.2197
 20
65.7077
 30
0.0
 11
56.2197
 21
71.5077
 31
0.0
  0
LINE
  8
0
 62
     0
 10
56.2197
 20
71.5077
 30
0.0
 11
57.0205
 21
71.5077
 31
0.0
  0
LINE
  8
0
 62
     0
 10
57.0205
 20
71.5077
 30
0.0
 11
57.0205
 21
74.6083
 31
0.0
  0
LINE
  8
0
 62
     0
 10
57.0205
 20
74.6083
 30
0.0
 11
56.2197
 21
74.6083
 31
0.0
  0
LINE
  8
0
 62
     0
 10
56.2197
 20
74.6083
 30
0.0
 11
56.2197
 21
75.6087
 31
0.0
  0
LINE
  8
0
 62
     0
 10
56.2197
 20
75.6087
 30
0.0
 11
42.2204
 21
75.6087
 31
0.0
  0
LINE
  8
0
 62
     0
 10
23.1703
 20
75.6087
 30
0.0
 11
23.1703
 21
74.6083
 31
0.0
  0
LINE
  8
0
 62
     0
 10
23.1703
 20
74.6083
 30
0.0
 11
22.3711
 21
74.6083
 31
0.0
  0
LINE
  8
0
 62
     0
 10
22.3711
 20
74.6083
 30
0.0
 11
22.3711
 21
71.5077
 31
0.0
  0
LINE
  8
0
 62
     0
 10
22.3711
 20
71.5077
 30
0.0
 11
23.1703
 21
71.5077
 31
0.0
  0
LINE
  8
0
 62
     0
 10
23.1703
 20
71.5077
 30
0.0
 11
23.1703
 21
65.7077
 31
0.0
  0
LINE
  8
0
 62
     0
 10
23.1703
 20
65.7077
 30
0.0
 11
22.3711
 21
65.7077
 31
0.0
  0
LINE
  8
0
 62
     0
 10
22.3711
 20
65.7077
 30
0.0
 11
22.3711
 21
62.6071
 31
0.0
  0
LINE
  8
0
 62
     0
 10
22.3711
 20
62.6071
 30
0.0
 11
23.1703
 21
62.6071
 31
0.0
  0
LINE
  8
0
 62
     0
 10
23.1703
 20
62.6071
 30
0.0
 11
23.1703
 21
61.6081
 31
0.0
  0
LINE
  8
0
 62
     0
 10
23.1703
 20
61.6081
 30
0.0
 11
37.1697
 21
61.6081
 31
0.0
  0
LINE
  8
0
 62
     0
 10
37.1697
 20
61.6081
 30
0.0
 11
37.1697
 21
62.6071
 31
0.0
  0
LINE
  8
0
 62
     0
 10
37.1697
 20
62.6071
 30
0.0
 11
37.9705
 21
62.6071
 31
0.0
  0
LINE
  8
0
 62
     0
 10
37.9705
 20
62.6071
 30
0.0
 11
37.9705
 21
65.7077
 31
0.0
  0
LINE
  8
0
 62
     0
 10
37.9705
 20
65.7077
 30
0.0
 11
37.1697
 21
65.7077
 31
0.0
  0
LINE
  8
0
 62
     0
 10
37.1697
 20
65.7077
 30
0.0
 11
37.1697
 21
71.5077
 31
0.0
  0
LINE
  8
0
 62
     0
 10
37.1697
 20
71.5077
 30
0.0
 11
37.9705
 21
71.5077
 31
0.0
  0
LINE
  8
0
 62
     0
 10
37.9705
 20
71.5077
 30
0.0
 11
37.9705
 21
74.6083
 31
0.0
  0
LINE
  8
0
 62
     0
 10
37.9705
 20
74.6083
 30
0.0
 11
37.1697
 21
74.6083
 31
0.0
  0
LINE
  8
0
 62
     0
 10
37.1697
 20
74.6083
 30
0.0
 11
37.1697
 21
75.6087
 31
0.0
  0
LINE
  8
0
 62
     0
 10
37.1697
 20
75.6087
 30
0.0
 11
23.1703
 21
75.6087
 31
0.0
  0
LINE
  8
0
 62
     0
 10
4.11896
 20
75.6087
 30
0.0
 11
4.11896
 21
74.6083
 31
0.0
  0
LINE
  8
0
 62
     0
 10
4.11896
 20
74.6083
 30
0.0
 11
3.3197
 21
74.6083
 31
0.0
  0
LINE
  8
0
 62
     0
 10
3.3197
 20
74.6083
 30
0.0
 11
3.3197
 21
71.5077
 31
0.0
  0
LINE
  8
0
 62
     0
 10
3.3197
 20
71.5077
 30
0.0
 11
4.11896
 21
71.5077
 31
0.0
  0
LINE
  8
0
 62
     0
 10
4.11896
 20
71.5077
 30
0.0
 11
4.11896
 21
65.7077
 31
0.0
  0
LINE
  8
0
 62
     0
 10
4.11896
 20
65.7077
 30
0.0
 11
3.3197
 21
65.7077
 31
0.0
  0
LINE
  8
0
 62
     0
 10
3.3197
 20
65.7077
 30
0.0
 11
3.3197
 21
62.6071
 31
0.0
  0
LINE
  8
0
 62
     0
 10
3.3197
 20
62.6071
 30
0.0
 11
4.11896
 21
62.6071
 31
0.0
  0
LINE
  8
0
 62
     0
 10
4.11896
 20
62.6071
 30
0.0
 11
4.11896
 21
61.6081
 31
0.0
  0
LINE
  8
0
 62
     0
 10
4.11896
 20
61.6081
 30
0.0
 11
18.1198
 21
61.6081
 31
0.0
  0
LINE
  8
0
 62
     0
 10
18.1198
 20
61.6081
 30
0.0
 11
18.1198
 21
62.6071
 31
0.0
  0
LINE
  8
0
 62
     0
 10
18.1198
 20
62.6071
 30
0.0
 11
18.9205
 21
62.6071
 31
0.0
  0
LINE
  8
0
 62
     0
 10
18.9205
 20
62.6071
 30
0.0
 11
18.9205
 21
65.7077
 31
0.0
  0
LINE
  8
0
 62
     0
 10
18.9205
 20
65.7077
 30
0.0
 11
18.1198
 21
65.7077
 31
0.0
  0
LINE
  8
0
 62
     0
 10
18.1198
 20
65.7077
 30
0.0
 11
18.1198
 21
71.5077
 31
0.0
  0
LINE
  8
0
 62
     0
 10
18.1198
 20
71.5077
 30
0.0
 11
18.9205
 21
71.5077
 31
0.0
  0
LINE
  8
0
 62
     0
 10
18.9205
 20
71.5077
 30
0.0
 11
18.9205
 21
74.6083
 31
0.0
  0
LINE
  8
0
 62
     0
 10
18.9205
 20
74.6083
 30
0.0
 11
18.1198
 21
74.6083
 31
0.0
  0
LINE
  8
0
 62
     0
 10
18.1198
 20
74.6083
 30
0.0
 11
18.1198
 21
75.6087
 31
0.0
  0
LINE
  8
0
 62
     0
 10
18.1198
 20
75.6087
 30
0.0
 11
4.11896
 21
75.6087
 31
0.0
  0
ENDSEC
  0
EOF
